G04*
G04 #@! TF.GenerationSoftware,Altium Limited,Altium Designer,21.2.1 (34)*
G04*
G04 Layer_Color=255*
%FSTAX24Y24*%
%MOIN*%
G70*
G04*
G04 #@! TF.SameCoordinates,6F426459-06F4-48D7-9159-22F1CB30FF4C*
G04*
G04*
G04 #@! TF.FilePolarity,Positive*
G04*
G01*
G75*
%ADD48R,0.0591X0.0591*%
%ADD49C,0.0591*%
%ADD50C,0.1575*%
%ADD51O,0.0620X0.0900*%
%ADD52R,0.0620X0.0900*%
%ADD53R,0.1000X0.0650*%
%ADD54O,0.1000X0.0650*%
%ADD55O,0.0700X0.1000*%
%ADD56R,0.0700X0.1000*%
%ADD57R,0.0800X0.0800*%
%ADD58C,0.0800*%
%ADD59C,0.1100*%
%ADD60C,0.0551*%
%ADD61O,0.1000X0.0660*%
%ADD62R,0.0984X0.0472*%
%ADD63O,0.0984X0.0472*%
%ADD64C,0.0539*%
%ADD65R,0.0539X0.0539*%
%ADD66O,0.1200X0.0600*%
%ADD67R,0.0600X0.0600*%
%ADD68C,0.0984*%
%ADD69R,0.0984X0.0984*%
%ADD70R,0.0591X0.0591*%
D48*
X01535Y03545D02*
D03*
X024Y0355D02*
D03*
X02855Y0356D02*
D03*
D49*
X01635Y03545D02*
D03*
X01735D02*
D03*
X01835D02*
D03*
X01935D02*
D03*
X02035D02*
D03*
X02135D02*
D03*
X02235D02*
D03*
X05775Y0481D02*
D03*
Y0471D02*
D03*
X025Y0355D02*
D03*
X026D02*
D03*
X027D02*
D03*
X01705Y05755D02*
D03*
Y05655D02*
D03*
X0445Y0564D02*
D03*
X0435D02*
D03*
X04655Y05535D02*
D03*
Y05635D02*
D03*
X04455Y0553D02*
D03*
X04355D02*
D03*
X02955Y0356D02*
D03*
X03055D02*
D03*
X0185Y0565D02*
D03*
Y0555D02*
D03*
Y0545D02*
D03*
D50*
X0163Y05915D02*
D03*
X01635Y03965D02*
D03*
X05175Y05915D02*
D03*
Y0396D02*
D03*
D51*
X0335Y06025D02*
D03*
X0325D02*
D03*
X0315D02*
D03*
X0305D02*
D03*
X0295D02*
D03*
X0285D02*
D03*
X0275D02*
D03*
X0265D02*
D03*
X0255D02*
D03*
X0245D02*
D03*
X0235D02*
D03*
X0225D02*
D03*
X0215D02*
D03*
X0205D02*
D03*
X0195D02*
D03*
D52*
X0185D02*
D03*
D53*
X04945Y05645D02*
D03*
D54*
Y05545D02*
D03*
D55*
X04755Y0534D02*
D03*
X04455Y05345D02*
D03*
D56*
X04655Y0534D02*
D03*
X04355Y05345D02*
D03*
D57*
X04195Y0534D02*
D03*
X0595Y0416D02*
D03*
D58*
X04195Y0564D02*
D03*
X0595Y0386D02*
D03*
D59*
X044Y0593D02*
D03*
X042D02*
D03*
D60*
X05545Y037842D02*
D03*
Y041858D02*
D03*
X050608Y05785D02*
D03*
X046592D02*
D03*
D61*
X0578Y0407D02*
D03*
Y0397D02*
D03*
Y0387D02*
D03*
D62*
X0358Y04265D02*
D03*
D63*
Y04365D02*
D03*
Y04465D02*
D03*
Y04565D02*
D03*
Y04665D02*
D03*
Y04765D02*
D03*
Y04865D02*
D03*
Y04965D02*
D03*
Y05065D02*
D03*
Y05165D02*
D03*
Y05265D02*
D03*
Y05365D02*
D03*
Y05465D02*
D03*
Y05565D02*
D03*
Y05665D02*
D03*
X0258Y04265D02*
D03*
Y04365D02*
D03*
Y04465D02*
D03*
Y04565D02*
D03*
Y04665D02*
D03*
Y04765D02*
D03*
Y04865D02*
D03*
Y04965D02*
D03*
Y05065D02*
D03*
Y05165D02*
D03*
Y05265D02*
D03*
Y05365D02*
D03*
Y05465D02*
D03*
Y05565D02*
D03*
Y05665D02*
D03*
D64*
X03915Y0355D02*
D03*
X03815D02*
D03*
X03715D02*
D03*
X03615D02*
D03*
X03515D02*
D03*
X03415D02*
D03*
X03315D02*
D03*
D65*
X03215D02*
D03*
D66*
X065Y05395D02*
D03*
Y05295D02*
D03*
Y05195D02*
D03*
Y05095D02*
D03*
Y04995D02*
D03*
Y04895D02*
D03*
Y04695D02*
D03*
X056D02*
D03*
Y04795D02*
D03*
Y04895D02*
D03*
Y05095D02*
D03*
Y05195D02*
D03*
Y05295D02*
D03*
D67*
X065Y04795D02*
D03*
X056Y04995D02*
D03*
Y05395D02*
D03*
D68*
X06305Y038404D02*
D03*
D69*
Y041396D02*
D03*
D70*
X0185Y0575D02*
D03*
M02*
