M48
;Layer_Color=9474304
;FILE_FORMAT=2:4
INCH,LZ
;TYPE=PLATED
T1F00S00C0.0236
T2F00S00C0.0276
T3F00S00C0.0280
T4F00S00C0.0315
T5F00S00C0.0320
T6F00S00C0.0350
T7F00S00C0.0354
T8F00S00C0.0390
T9F00S00C0.0400
T10F00S00C0.0402
T11F00S00C0.0500
T12F00S00C0.1378
%
T01
X0258Y04265
Y04365
Y04465
Y04565
Y04665
X0358
Y04565
Y04465
Y04365
Y04265
X05545Y041858
Y037842
X050608Y05785
X046592
X0358Y05665
Y05565
Y05465
Y05365
Y05265
Y05165
Y05065
Y04965
Y04865
Y04765
X0258
Y04865
Y04965
Y05065
Y05165
Y05265
Y05365
Y05465
Y05565
Y05665
T02
X05775Y0471
Y0481
X04655Y05535
Y05635
X0445Y0564
X0435
X04355Y0553
X04455
X01705Y05655
Y05755
T03
X0226Y04015
X0301Y03725
X0205Y0482
T04
X06305Y038404
Y041396
T05
X0578Y0387
Y0397
Y0407
X04755Y0534
X04945Y05545
Y05645
X04655Y0534
X04455Y05345
X04355
T06
X0595Y0386
Y0416
X04195Y0534
Y0564
T07
X01535Y03545
X01635
X01735
X01835
X01935
X02035
X02135
X02235
X024Y0355
X025
X026
X027
X02855Y0356
X02955
X03055
X0185Y0545
Y0555
Y0565
Y0575
T08
X0315Y06025
X0325
X0335
X0305
X0295
X0285
X0275
X0265
X0255
X0245
X0235
X0225
X0215
X0205
X0195
X0185
T09
X065Y04695
Y04795
Y04895
Y04995
Y05095
Y05195
Y05295
Y05395
X056
Y05295
Y05195
Y05095
Y04995
Y04895
Y04795
Y04695
T10
X03215Y0355
X03315
X03415
X03515
X03615
X03715
X03815
X03915
T11
X042Y0593
X044
T12
X01635Y03965
X05175Y0396
Y05915
X0163
M30
