G04*
G04 #@! TF.GenerationSoftware,Altium Limited,Altium Designer,21.2.1 (34)*
G04*
G04 Layer_Physical_Order=1*
G04 Layer_Color=255*
%FSTAX24Y24*%
%MOIN*%
G70*
G04*
G04 #@! TF.SameCoordinates,6F426459-06F4-48D7-9159-22F1CB30FF4C*
G04*
G04*
G04 #@! TF.FilePolarity,Positive*
G04*
G01*
G75*
%ADD15C,0.0394*%
%ADD18R,0.0394X0.0945*%
%ADD19R,0.1299X0.0945*%
%ADD46C,0.0197*%
%ADD47C,0.0315*%
%ADD48R,0.0591X0.0591*%
%ADD49C,0.0591*%
%ADD50C,0.1575*%
%ADD51O,0.0620X0.0900*%
%ADD52R,0.0620X0.0900*%
%ADD53R,0.1000X0.0650*%
%ADD54O,0.1000X0.0650*%
%ADD55O,0.0700X0.1000*%
%ADD56R,0.0700X0.1000*%
%ADD57R,0.0800X0.0800*%
%ADD58C,0.0800*%
%ADD59C,0.1100*%
%ADD60C,0.0551*%
%ADD61O,0.1000X0.0660*%
%ADD62R,0.0984X0.0472*%
%ADD63O,0.0984X0.0472*%
%ADD64C,0.0539*%
%ADD65R,0.0539X0.0539*%
%ADD66O,0.1200X0.0600*%
%ADD67R,0.0600X0.0600*%
%ADD68C,0.0984*%
%ADD69R,0.0984X0.0984*%
%ADD70R,0.0591X0.0591*%
%ADD71C,0.0500*%
G36*
X066347Y034253D02*
X014153D01*
X014153Y061597D01*
X066347D01*
Y034253D01*
D02*
G37*
%LPC*%
G36*
X01891Y0608D02*
X01809D01*
Y0597D01*
X01891D01*
Y0608D01*
D02*
G37*
G36*
X0335Y060804D02*
X033393Y060789D01*
X033293Y060748D01*
X033208Y060682D01*
X033142Y060597D01*
X033101Y060497D01*
X033086Y06039D01*
Y06011D01*
X033101Y060003D01*
X033142Y059903D01*
X033208Y059818D01*
X033293Y059752D01*
X033393Y059711D01*
X0335Y059696D01*
X033607Y059711D01*
X033707Y059752D01*
X033792Y059818D01*
X033858Y059903D01*
X033899Y060003D01*
X033914Y06011D01*
Y06039D01*
X033899Y060497D01*
X033858Y060597D01*
X033792Y060682D01*
X033707Y060748D01*
X033607Y060789D01*
X0335Y060804D01*
D02*
G37*
G36*
X0325D02*
X032393Y060789D01*
X032293Y060748D01*
X032208Y060682D01*
X032142Y060597D01*
X032101Y060497D01*
X032086Y06039D01*
Y06011D01*
X032101Y060003D01*
X032142Y059903D01*
X032208Y059818D01*
X032293Y059752D01*
X032393Y059711D01*
X0325Y059696D01*
X032607Y059711D01*
X032707Y059752D01*
X032792Y059818D01*
X032858Y059903D01*
X032899Y060003D01*
X032914Y06011D01*
Y06039D01*
X032899Y060497D01*
X032858Y060597D01*
X032792Y060682D01*
X032707Y060748D01*
X032607Y060789D01*
X0325Y060804D01*
D02*
G37*
G36*
X0315D02*
X031393Y060789D01*
X031293Y060748D01*
X031208Y060682D01*
X031142Y060597D01*
X031101Y060497D01*
X031086Y06039D01*
Y06011D01*
X031101Y060003D01*
X031142Y059903D01*
X031208Y059818D01*
X031293Y059752D01*
X031393Y059711D01*
X0315Y059696D01*
X031607Y059711D01*
X031707Y059752D01*
X031792Y059818D01*
X031858Y059903D01*
X031899Y060003D01*
X031914Y06011D01*
Y06039D01*
X031899Y060497D01*
X031858Y060597D01*
X031792Y060682D01*
X031707Y060748D01*
X031607Y060789D01*
X0315Y060804D01*
D02*
G37*
G36*
X0305D02*
X030393Y060789D01*
X030293Y060748D01*
X030208Y060682D01*
X030142Y060597D01*
X030101Y060497D01*
X030086Y06039D01*
Y06011D01*
X030101Y060003D01*
X030142Y059903D01*
X030208Y059818D01*
X030293Y059752D01*
X030393Y059711D01*
X0305Y059696D01*
X030607Y059711D01*
X030707Y059752D01*
X030792Y059818D01*
X030858Y059903D01*
X030899Y060003D01*
X030914Y06011D01*
Y06039D01*
X030899Y060497D01*
X030858Y060597D01*
X030792Y060682D01*
X030707Y060748D01*
X030607Y060789D01*
X0305Y060804D01*
D02*
G37*
G36*
X0295D02*
X029393Y060789D01*
X029293Y060748D01*
X029208Y060682D01*
X029142Y060597D01*
X029101Y060497D01*
X029086Y06039D01*
Y06011D01*
X029101Y060003D01*
X029142Y059903D01*
X029208Y059818D01*
X029293Y059752D01*
X029393Y059711D01*
X0295Y059696D01*
X029607Y059711D01*
X029707Y059752D01*
X029792Y059818D01*
X029858Y059903D01*
X029899Y060003D01*
X029914Y06011D01*
Y06039D01*
X029899Y060497D01*
X029858Y060597D01*
X029792Y060682D01*
X029707Y060748D01*
X029607Y060789D01*
X0295Y060804D01*
D02*
G37*
G36*
X0285D02*
X028393Y060789D01*
X028293Y060748D01*
X028208Y060682D01*
X028142Y060597D01*
X028101Y060497D01*
X028086Y06039D01*
Y06011D01*
X028101Y060003D01*
X028142Y059903D01*
X028208Y059818D01*
X028293Y059752D01*
X028393Y059711D01*
X0285Y059696D01*
X028607Y059711D01*
X028707Y059752D01*
X028792Y059818D01*
X028858Y059903D01*
X028899Y060003D01*
X028914Y06011D01*
Y06039D01*
X028899Y060497D01*
X028858Y060597D01*
X028792Y060682D01*
X028707Y060748D01*
X028607Y060789D01*
X0285Y060804D01*
D02*
G37*
G36*
X0275D02*
X027393Y060789D01*
X027293Y060748D01*
X027208Y060682D01*
X027142Y060597D01*
X027101Y060497D01*
X027086Y06039D01*
Y06011D01*
X027101Y060003D01*
X027142Y059903D01*
X027208Y059818D01*
X027293Y059752D01*
X027393Y059711D01*
X0275Y059696D01*
X027607Y059711D01*
X027707Y059752D01*
X027792Y059818D01*
X027858Y059903D01*
X027899Y060003D01*
X027914Y06011D01*
Y06039D01*
X027899Y060497D01*
X027858Y060597D01*
X027792Y060682D01*
X027707Y060748D01*
X027607Y060789D01*
X0275Y060804D01*
D02*
G37*
G36*
X0265D02*
X026393Y060789D01*
X026293Y060748D01*
X026208Y060682D01*
X026142Y060597D01*
X026101Y060497D01*
X026086Y06039D01*
Y06011D01*
X026101Y060003D01*
X026142Y059903D01*
X026208Y059818D01*
X026293Y059752D01*
X026393Y059711D01*
X0265Y059696D01*
X026607Y059711D01*
X026707Y059752D01*
X026792Y059818D01*
X026858Y059903D01*
X026899Y060003D01*
X026914Y06011D01*
Y06039D01*
X026899Y060497D01*
X026858Y060597D01*
X026792Y060682D01*
X026707Y060748D01*
X026607Y060789D01*
X0265Y060804D01*
D02*
G37*
G36*
X0255D02*
X025393Y060789D01*
X025293Y060748D01*
X025208Y060682D01*
X025142Y060597D01*
X025101Y060497D01*
X025086Y06039D01*
Y06011D01*
X025101Y060003D01*
X025142Y059903D01*
X025208Y059818D01*
X025293Y059752D01*
X025393Y059711D01*
X0255Y059696D01*
X025607Y059711D01*
X025707Y059752D01*
X025792Y059818D01*
X025858Y059903D01*
X025899Y060003D01*
X025914Y06011D01*
Y06039D01*
X025899Y060497D01*
X025858Y060597D01*
X025792Y060682D01*
X025707Y060748D01*
X025607Y060789D01*
X0255Y060804D01*
D02*
G37*
G36*
X0245D02*
X024393Y060789D01*
X024293Y060748D01*
X024208Y060682D01*
X024142Y060597D01*
X024101Y060497D01*
X024086Y06039D01*
Y06011D01*
X024101Y060003D01*
X024142Y059903D01*
X024208Y059818D01*
X024293Y059752D01*
X024393Y059711D01*
X0245Y059696D01*
X024607Y059711D01*
X024707Y059752D01*
X024792Y059818D01*
X024858Y059903D01*
X024899Y060003D01*
X024914Y06011D01*
Y06039D01*
X024899Y060497D01*
X024858Y060597D01*
X024792Y060682D01*
X024707Y060748D01*
X024607Y060789D01*
X0245Y060804D01*
D02*
G37*
G36*
X0235D02*
X023393Y060789D01*
X023293Y060748D01*
X023208Y060682D01*
X023142Y060597D01*
X023101Y060497D01*
X023086Y06039D01*
Y06011D01*
X023101Y060003D01*
X023142Y059903D01*
X023208Y059818D01*
X023293Y059752D01*
X023393Y059711D01*
X0235Y059696D01*
X023607Y059711D01*
X023707Y059752D01*
X023792Y059818D01*
X023858Y059903D01*
X023899Y060003D01*
X023914Y06011D01*
Y06039D01*
X023899Y060497D01*
X023858Y060597D01*
X023792Y060682D01*
X023707Y060748D01*
X023607Y060789D01*
X0235Y060804D01*
D02*
G37*
G36*
X0225D02*
X022393Y060789D01*
X022293Y060748D01*
X022208Y060682D01*
X022142Y060597D01*
X022101Y060497D01*
X022086Y06039D01*
Y06011D01*
X022101Y060003D01*
X022142Y059903D01*
X022208Y059818D01*
X022293Y059752D01*
X022393Y059711D01*
X0225Y059696D01*
X022607Y059711D01*
X022707Y059752D01*
X022792Y059818D01*
X022858Y059903D01*
X022899Y060003D01*
X022914Y06011D01*
Y06039D01*
X022899Y060497D01*
X022858Y060597D01*
X022792Y060682D01*
X022707Y060748D01*
X022607Y060789D01*
X0225Y060804D01*
D02*
G37*
G36*
X0215D02*
X021393Y060789D01*
X021293Y060748D01*
X021208Y060682D01*
X021142Y060597D01*
X021101Y060497D01*
X021086Y06039D01*
Y06011D01*
X021101Y060003D01*
X021142Y059903D01*
X021208Y059818D01*
X021293Y059752D01*
X021393Y059711D01*
X0215Y059696D01*
X021607Y059711D01*
X021707Y059752D01*
X021792Y059818D01*
X021858Y059903D01*
X021899Y060003D01*
X021914Y06011D01*
Y06039D01*
X021899Y060497D01*
X021858Y060597D01*
X021792Y060682D01*
X021707Y060748D01*
X021607Y060789D01*
X0215Y060804D01*
D02*
G37*
G36*
X0205D02*
X020393Y060789D01*
X020293Y060748D01*
X020208Y060682D01*
X020142Y060597D01*
X020101Y060497D01*
X020086Y06039D01*
Y06011D01*
X020101Y060003D01*
X020142Y059903D01*
X020208Y059818D01*
X020293Y059752D01*
X020393Y059711D01*
X0205Y059696D01*
X020607Y059711D01*
X020707Y059752D01*
X020792Y059818D01*
X020858Y059903D01*
X020899Y060003D01*
X020914Y06011D01*
Y06039D01*
X020899Y060497D01*
X020858Y060597D01*
X020792Y060682D01*
X020707Y060748D01*
X020607Y060789D01*
X0205Y060804D01*
D02*
G37*
G36*
X0195D02*
X019393Y060789D01*
X019293Y060748D01*
X019208Y060682D01*
X019142Y060597D01*
X019101Y060497D01*
X019086Y06039D01*
Y06011D01*
X019101Y060003D01*
X019142Y059903D01*
X019208Y059818D01*
X019293Y059752D01*
X019393Y059711D01*
X0195Y059696D01*
X019607Y059711D01*
X019707Y059752D01*
X019792Y059818D01*
X019858Y059903D01*
X019899Y060003D01*
X019914Y06011D01*
Y06039D01*
X019899Y060497D01*
X019858Y060597D01*
X019792Y060682D01*
X019707Y060748D01*
X019607Y060789D01*
X0195Y060804D01*
D02*
G37*
G36*
X044064Y05995D02*
X04405D01*
Y05935D01*
X04465D01*
Y059364D01*
X044625Y05949D01*
X044576Y059608D01*
X044505Y059714D01*
X044414Y059805D01*
X044308Y059876D01*
X04419Y059925D01*
X044064Y05995D01*
D02*
G37*
G36*
X04395D02*
X043936D01*
X04381Y059925D01*
X043692Y059876D01*
X043586Y059805D01*
X043495Y059714D01*
X043424Y059608D01*
X043375Y05949D01*
X04335Y059364D01*
Y05935D01*
X04395D01*
Y05995D01*
D02*
G37*
G36*
X04465Y05925D02*
X04405D01*
Y05865D01*
X044064D01*
X04419Y058675D01*
X044308Y058724D01*
X044414Y058795D01*
X044505Y058886D01*
X044576Y058992D01*
X044625Y05911D01*
X04465Y059236D01*
Y05925D01*
D02*
G37*
G36*
X04395D02*
X04335D01*
Y059236D01*
X043375Y05911D01*
X043424Y058992D01*
X043495Y058886D01*
X043586Y058795D01*
X043692Y058724D01*
X04381Y058675D01*
X043936Y05865D01*
X04395D01*
Y05925D01*
D02*
G37*
G36*
X051837Y060037D02*
X051663D01*
X051491Y060003D01*
X05133Y059936D01*
X051184Y059839D01*
X051061Y059716D01*
X050964Y05957D01*
X050897Y059409D01*
X050863Y059237D01*
Y059063D01*
X050897Y058891D01*
X050964Y05873D01*
X051061Y058584D01*
X051184Y058461D01*
X05133Y058364D01*
X051491Y058297D01*
X051663Y058263D01*
X051837D01*
X052009Y058297D01*
X05217Y058364D01*
X052316Y058461D01*
X052439Y058584D01*
X052536Y05873D01*
X052603Y058891D01*
X052637Y059063D01*
Y059237D01*
X052603Y059409D01*
X052536Y05957D01*
X052439Y059716D01*
X052316Y059839D01*
X05217Y059936D01*
X052009Y060003D01*
X051837Y060037D01*
D02*
G37*
G36*
X016387D02*
X016213D01*
X016041Y060003D01*
X01588Y059936D01*
X015734Y059839D01*
X015611Y059716D01*
X015514Y05957D01*
X015447Y059409D01*
X015413Y059237D01*
Y059063D01*
X015447Y058891D01*
X015514Y05873D01*
X015611Y058584D01*
X015734Y058461D01*
X01588Y058364D01*
X016041Y058297D01*
X016213Y058263D01*
X016387D01*
X016559Y058297D01*
X01672Y058364D01*
X016866Y058461D01*
X016989Y058584D01*
X017086Y05873D01*
X017153Y058891D01*
X017187Y059063D01*
Y059237D01*
X017153Y059409D01*
X017086Y05957D01*
X016989Y059716D01*
X016866Y059839D01*
X01672Y059936D01*
X016559Y060003D01*
X016387Y060037D01*
D02*
G37*
G36*
X017102Y057945D02*
X0171D01*
Y0576D01*
X017445D01*
Y057602D01*
X017418Y057703D01*
X017366Y057793D01*
X017293Y057866D01*
X017203Y057918D01*
X017102Y057945D01*
D02*
G37*
G36*
X017D02*
X016998D01*
X016897Y057918D01*
X016807Y057866D01*
X016734Y057793D01*
X016682Y057703D01*
X016655Y057602D01*
Y0576D01*
X017D01*
Y057945D01*
D02*
G37*
G36*
X018895Y057895D02*
X01855D01*
Y05755D01*
X018895D01*
Y057895D01*
D02*
G37*
G36*
X01845D02*
X018105D01*
Y05755D01*
X01845D01*
Y057895D01*
D02*
G37*
G36*
X050657Y058226D02*
X050558D01*
X050463Y0582D01*
X050377Y058151D01*
X050376Y058149D01*
X049681D01*
X049603Y058139D01*
X049561Y058122D01*
X049531Y058109D01*
X049469Y058062D01*
X049238Y057831D01*
X049191Y057769D01*
X049161Y057697D01*
X049151Y057619D01*
Y056875D01*
X04885D01*
Y056025D01*
X05005D01*
Y056875D01*
X049749D01*
Y057495D01*
X049805Y057551D01*
X050376D01*
X050377Y057549D01*
X050463Y0575D01*
X050558Y057474D01*
X050657D01*
X050753Y0575D01*
X050838Y057549D01*
X050908Y057619D01*
X050958Y057705D01*
X050983Y057801D01*
Y057899D01*
X050958Y057995D01*
X050908Y058081D01*
X050838Y058151D01*
X050753Y0582D01*
X050657Y058226D01*
D02*
G37*
G36*
X046642D02*
X046543D01*
X046447Y0582D01*
X046401Y058173D01*
X045957D01*
X045879Y058163D01*
X045837Y058146D01*
X045807Y058133D01*
X045745Y058086D01*
X045514Y057855D01*
X045467Y057793D01*
X045437Y057721D01*
X045427Y057643D01*
Y055581D01*
Y05335D01*
Y053005D01*
X045371Y052949D01*
X044911D01*
X044887Y052999D01*
X044943Y053073D01*
X044988Y053183D01*
X045004Y0533D01*
Y0534D01*
X044096D01*
Y0533D01*
X044112Y053183D01*
X044157Y053073D01*
X044213Y052999D01*
X044189Y052949D01*
X044D01*
Y05405D01*
X043849D01*
Y05504D01*
X043866Y055057D01*
X043918Y055147D01*
X043945Y055248D01*
Y055352D01*
X043918Y055453D01*
X043866Y055543D01*
X043793Y055616D01*
X043703Y055668D01*
X043602Y055695D01*
X043498D01*
X043397Y055668D01*
X043307Y055616D01*
X043234Y055543D01*
X043182Y055453D01*
X043155Y055352D01*
Y055248D01*
X043182Y055147D01*
X043234Y055057D01*
X043251Y05504D01*
Y05405D01*
X0431D01*
Y053724D01*
X04245D01*
Y0539D01*
X04145D01*
Y0529D01*
X041651D01*
Y052214D01*
X041498D01*
Y051937D01*
X041495Y051917D01*
Y051642D01*
X041498Y051622D01*
Y051069D01*
X042091D01*
Y051622D01*
X042094Y051642D01*
Y051793D01*
X042162Y051861D01*
X042209Y051923D01*
X042222Y051953D01*
X042239Y051995D01*
X042249Y052073D01*
Y0529D01*
X04245D01*
Y053126D01*
X0431D01*
Y052945D01*
X043053Y052939D01*
X042981Y052909D01*
X042919Y052862D01*
X042488Y052431D01*
X042441Y052369D01*
X042411Y052297D01*
X042401Y052219D01*
Y051642D01*
Y049931D01*
X04195D01*
Y048786D01*
X04345D01*
Y049931D01*
X042999D01*
Y051642D01*
Y052095D01*
X043255Y052351D01*
X045427D01*
Y051181D01*
X045437Y051103D01*
X045467Y051031D01*
X045514Y050969D01*
X045745Y050738D01*
X045807Y050691D01*
X045837Y050678D01*
X045879Y050661D01*
X045957Y050651D01*
X055433D01*
X055498Y050601D01*
X055596Y05056D01*
X0557Y050547D01*
X0563D01*
X056404Y05056D01*
X056502Y050601D01*
X056567Y050651D01*
X05674D01*
Y049053D01*
X05669Y04905D01*
X05669Y049054D01*
X056649Y049152D01*
X056585Y049235D01*
X056502Y049299D01*
X056404Y04934D01*
X0563Y049353D01*
X0557D01*
X055596Y04934D01*
X055498Y049299D01*
X055415Y049235D01*
X055351Y049152D01*
X05531Y049054D01*
X055297Y04895D01*
X05531Y048846D01*
X055351Y048748D01*
X055415Y048665D01*
X055498Y048601D01*
X055596Y04856D01*
X0557Y048547D01*
X0563D01*
X056404Y04856D01*
X056502Y048601D01*
X056585Y048665D01*
X056649Y048748D01*
X05669Y048846D01*
X05669Y04885D01*
X05674Y048847D01*
Y048053D01*
X05669Y04805D01*
X05669Y048054D01*
X056649Y048152D01*
X056585Y048235D01*
X056502Y048299D01*
X056404Y04834D01*
X0563Y048353D01*
X0557D01*
X055596Y04834D01*
X055498Y048299D01*
X055415Y048235D01*
X055351Y048152D01*
X05531Y048054D01*
X055297Y04795D01*
X05531Y047846D01*
X055351Y047748D01*
X055415Y047665D01*
X055498Y047601D01*
X055596Y04756D01*
X0557Y047547D01*
X0563D01*
X056404Y04756D01*
X056502Y047601D01*
X056585Y047665D01*
X056649Y047748D01*
X05669Y047846D01*
X05669Y04785D01*
X05674Y047847D01*
Y047235D01*
X056586D01*
X056585Y047235D01*
X056502Y047299D01*
X056404Y04734D01*
X0563Y047353D01*
X0557D01*
X055596Y04734D01*
X055498Y047299D01*
X055415Y047235D01*
X055351Y047152D01*
X05531Y047054D01*
X055297Y04695D01*
X05531Y046846D01*
X055351Y046748D01*
X055415Y046665D01*
X055498Y046601D01*
X055596Y04656D01*
X0557Y046547D01*
X0563D01*
X056404Y04656D01*
X056502Y046601D01*
X056585Y046665D01*
X056624Y046715D01*
X057512D01*
X057523Y046711D01*
X0576Y046701D01*
X057676Y046711D01*
X057698Y046705D01*
X057802D01*
X057903Y046732D01*
X057993Y046784D01*
X058066Y046857D01*
X058118Y046947D01*
X058145Y047048D01*
Y047152D01*
X058118Y047253D01*
X058066Y047343D01*
X057993Y047416D01*
X057903Y047468D01*
X057802Y047495D01*
X057698D01*
X057597Y047468D01*
X057507Y047416D01*
X057434Y047343D01*
X057382Y047253D01*
X057377Y047235D01*
X05726D01*
Y050881D01*
X057269Y05095D01*
X057259Y051027D01*
X057229Y0511D01*
X057181Y051162D01*
X057119Y051209D01*
X057047Y051239D01*
X056969Y051249D01*
X056567D01*
X056502Y051299D01*
X056404Y05134D01*
X0563Y051353D01*
X0557D01*
X055596Y05134D01*
X055498Y051299D01*
X055433Y051249D01*
X046081D01*
X046025Y051305D01*
Y052881D01*
Y053101D01*
X0461D01*
Y0528D01*
X047D01*
Y054D01*
X0461D01*
Y053699D01*
X046025D01*
Y055051D01*
X04629D01*
X046307Y055034D01*
X046397Y054982D01*
X046498Y054955D01*
X046602D01*
X046703Y054982D01*
X046793Y055034D01*
X046866Y055107D01*
X046918Y055197D01*
X046945Y055298D01*
Y055402D01*
X046918Y055503D01*
X046866Y055593D01*
X046793Y055666D01*
X046703Y055718D01*
X046602Y055745D01*
X046498D01*
X046397Y055718D01*
X046307Y055666D01*
X04629Y055649D01*
X046048D01*
X046035Y05568D01*
X046025Y055693D01*
Y057519D01*
X046081Y057575D01*
X046336D01*
X046362Y057549D01*
X046447Y0575D01*
X046543Y057474D01*
X046642D01*
X046737Y0575D01*
X046823Y057549D01*
X046893Y057619D01*
X046942Y057705D01*
X046968Y057801D01*
Y057899D01*
X046942Y057995D01*
X046893Y058081D01*
X046823Y058151D01*
X046737Y0582D01*
X046642Y058226D01*
D02*
G37*
G36*
X017445Y0575D02*
X0171D01*
Y057155D01*
X017102D01*
X017203Y057182D01*
X017293Y057234D01*
X017366Y057307D01*
X017418Y057397D01*
X017445Y057498D01*
Y0575D01*
D02*
G37*
G36*
X017D02*
X016655D01*
Y057498D01*
X016682Y057397D01*
X016734Y057307D01*
X016807Y057234D01*
X016897Y057182D01*
X016998Y057155D01*
X017D01*
Y0575D01*
D02*
G37*
G36*
X018895Y05745D02*
X01855D01*
Y057105D01*
X018895D01*
Y05745D01*
D02*
G37*
G36*
X01845D02*
X018105D01*
Y057105D01*
X01845D01*
Y05745D01*
D02*
G37*
G36*
X044552Y056795D02*
X04455D01*
Y05645D01*
X044895D01*
Y056452D01*
X044868Y056553D01*
X044816Y056643D01*
X044743Y056716D01*
X044653Y056768D01*
X044552Y056795D01*
D02*
G37*
G36*
X04445D02*
X044448D01*
X044347Y056768D01*
X044257Y056716D01*
X044184Y056643D01*
X044132Y056553D01*
X044105Y056452D01*
Y05645D01*
X04445D01*
Y056795D01*
D02*
G37*
G36*
X046602Y056745D02*
X0466D01*
Y0564D01*
X046945D01*
Y056402D01*
X046918Y056503D01*
X046866Y056593D01*
X046793Y056666D01*
X046703Y056718D01*
X046602Y056745D01*
D02*
G37*
G36*
X0465D02*
X046498D01*
X046397Y056718D01*
X046307Y056666D01*
X046234Y056593D01*
X046182Y056503D01*
X046155Y056402D01*
Y0564D01*
X0465D01*
Y056745D01*
D02*
G37*
G36*
X026056Y056989D02*
X025544D01*
X025456Y056978D01*
X025375Y056944D01*
X025304Y05689D01*
X02525Y05682D01*
X025217Y056738D01*
X025205Y05665D01*
X025217Y056562D01*
X02525Y05648D01*
X025304Y05641D01*
X025375Y056356D01*
X025456Y056322D01*
X025544Y056311D01*
X026056D01*
X026144Y056322D01*
X026225Y056356D01*
X026296Y05641D01*
X02635Y05648D01*
X026383Y056562D01*
X026395Y05665D01*
X026383Y056738D01*
X02635Y05682D01*
X026296Y05689D01*
X026225Y056944D01*
X026144Y056978D01*
X026056Y056989D01*
D02*
G37*
G36*
X044895Y05635D02*
X04455D01*
Y056005D01*
X044552D01*
X044653Y056032D01*
X044743Y056084D01*
X044816Y056157D01*
X044868Y056247D01*
X044895Y056348D01*
Y05635D01*
D02*
G37*
G36*
X04445D02*
X044105D01*
Y056348D01*
X044132Y056247D01*
X044184Y056157D01*
X044257Y056084D01*
X044347Y056032D01*
X044448Y056005D01*
X04445D01*
Y05635D01*
D02*
G37*
G36*
X042064Y05995D02*
X041936D01*
X04181Y059925D01*
X041692Y059876D01*
X041586Y059805D01*
X041495Y059714D01*
X041424Y059608D01*
X04142Y059599D01*
X02245D01*
X022373Y059589D01*
X0223Y059559D01*
X022238Y059512D01*
X019526Y056799D01*
X01876D01*
X018743Y056816D01*
X018653Y056868D01*
X018552Y056895D01*
X018448D01*
X018347Y056868D01*
X018271Y056824D01*
X017335D01*
X017293Y056866D01*
X017203Y056918D01*
X017102Y056945D01*
X016998D01*
X016897Y056918D01*
X016807Y056866D01*
X016734Y056793D01*
X016682Y056703D01*
X016655Y056602D01*
Y056498D01*
X016682Y056397D01*
X016734Y056307D01*
X016807Y056234D01*
X016897Y056182D01*
X016998Y056155D01*
X017102D01*
X017203Y056182D01*
X017279Y056226D01*
X018215D01*
X018257Y056184D01*
X018347Y056132D01*
X018448Y056105D01*
X018552D01*
X018653Y056132D01*
X018743Y056184D01*
X01876Y056201D01*
X01965D01*
X019727Y056211D01*
X0198Y056241D01*
X019862Y056288D01*
X022574Y059001D01*
X035501D01*
Y056983D01*
X035456Y056978D01*
X035375Y056944D01*
X035304Y05689D01*
X03525Y05682D01*
X035217Y056738D01*
X035205Y05665D01*
X035217Y056562D01*
X03525Y05648D01*
X035304Y05641D01*
X035375Y056356D01*
X035456Y056322D01*
X035544Y056311D01*
X036056D01*
X036144Y056322D01*
X036225Y056356D01*
X036296Y05641D01*
X03635Y05648D01*
X036383Y056562D01*
X036395Y05665D01*
X036383Y056738D01*
X03635Y05682D01*
X036296Y05689D01*
X036225Y056944D01*
X036144Y056978D01*
X036099Y056983D01*
Y059001D01*
X039451D01*
Y0441D01*
X039461Y044023D01*
X039491Y04395D01*
X039538Y043888D01*
X040188Y043238D01*
X04025Y043191D01*
X040323Y043161D01*
X0404Y043151D01*
X059145D01*
X059201Y043095D01*
Y0421D01*
X059D01*
Y0411D01*
X06D01*
Y041199D01*
X062458D01*
Y040804D01*
X063642D01*
Y041097D01*
X064769D01*
X064847Y041107D01*
X064919Y041137D01*
X064981Y041184D01*
X065212Y041415D01*
X065259Y041477D01*
X065272Y041507D01*
X065289Y041549D01*
X065299Y041627D01*
Y046547D01*
X0653D01*
X065404Y04656D01*
X065502Y046601D01*
X065585Y046665D01*
X065649Y046748D01*
X06569Y046846D01*
X065703Y04695D01*
X06569Y047054D01*
X065649Y047152D01*
X065585Y047235D01*
X065502Y047299D01*
X065404Y04734D01*
X0653Y047353D01*
X0647D01*
X064596Y04734D01*
X064498Y047299D01*
X064415Y047235D01*
X064351Y047152D01*
X06431Y047054D01*
X064297Y04695D01*
X06431Y046846D01*
X064351Y046748D01*
X064415Y046665D01*
X064498Y046601D01*
X064596Y04656D01*
X0647Y046547D01*
X064701D01*
Y041751D01*
X064645Y041695D01*
X063642D01*
Y041988D01*
X062458D01*
Y041797D01*
X06D01*
Y0421D01*
X059799D01*
Y043219D01*
X059789Y043297D01*
X059772Y043339D01*
X059759Y043369D01*
X059712Y043431D01*
X059481Y043662D01*
X059419Y043709D01*
X059347Y043739D01*
X059269Y043749D01*
X040524D01*
X040049Y044224D01*
Y059001D01*
X04142D01*
X041424Y058992D01*
X041495Y058886D01*
X041586Y058795D01*
X041692Y058724D01*
X041701Y05872D01*
Y056834D01*
X041699Y056833D01*
X041643Y0568D01*
X04155Y056707D01*
X041484Y056593D01*
X04145Y056466D01*
Y056334D01*
X041484Y056207D01*
X04155Y056093D01*
X041643Y056D01*
X041757Y055934D01*
X041884Y0559D01*
X042016D01*
X042143Y055934D01*
X042257Y056D01*
X04235Y056093D01*
X042369Y056126D01*
X043215D01*
X043257Y056084D01*
X043347Y056032D01*
X043448Y056005D01*
X043552D01*
X043653Y056032D01*
X043743Y056084D01*
X043816Y056157D01*
X043868Y056247D01*
X043895Y056348D01*
Y056452D01*
X043868Y056553D01*
X043816Y056643D01*
X043743Y056716D01*
X043653Y056768D01*
X043552Y056795D01*
X043448D01*
X043347Y056768D01*
X043271Y056724D01*
X042333D01*
X042299Y056758D01*
Y05872D01*
X042308Y058724D01*
X042414Y058795D01*
X042505Y058886D01*
X042576Y058992D01*
X042625Y05911D01*
X04265Y059236D01*
Y059364D01*
X042625Y05949D01*
X042576Y059608D01*
X042505Y059714D01*
X042414Y059805D01*
X042308Y059876D01*
X04219Y059925D01*
X042064Y05995D01*
D02*
G37*
G36*
X046945Y0563D02*
X0466D01*
Y055955D01*
X046602D01*
X046703Y055982D01*
X046793Y056034D01*
X046866Y056107D01*
X046918Y056197D01*
X046945Y056298D01*
Y0563D01*
D02*
G37*
G36*
X0465D02*
X046155D01*
Y056298D01*
X046182Y056197D01*
X046234Y056107D01*
X046307Y056034D01*
X046397Y055982D01*
X046498Y055955D01*
X0465D01*
Y0563D01*
D02*
G37*
G36*
X036056Y055989D02*
X03585D01*
Y0557D01*
X036388D01*
X036383Y055738D01*
X03635Y05582D01*
X036296Y05589D01*
X036225Y055944D01*
X036144Y055978D01*
X036056Y055989D01*
D02*
G37*
G36*
X026056D02*
X02585D01*
Y0557D01*
X026388D01*
X026383Y055738D01*
X02635Y05582D01*
X026296Y05589D01*
X026225Y055944D01*
X026144Y055978D01*
X026056Y055989D01*
D02*
G37*
G36*
X03575D02*
X035544D01*
X035456Y055978D01*
X035375Y055944D01*
X035304Y05589D01*
X03525Y05582D01*
X035217Y055738D01*
X035212Y0557D01*
X03575D01*
Y055989D01*
D02*
G37*
G36*
X02575D02*
X025544D01*
X025456Y055978D01*
X025375Y055944D01*
X025304Y05589D01*
X02525Y05582D01*
X025217Y055738D01*
X025212Y0557D01*
X02575D01*
Y055989D01*
D02*
G37*
G36*
X049625Y055879D02*
X0495D01*
Y0555D01*
X050047D01*
X050039Y055561D01*
X049996Y055664D01*
X049928Y055753D01*
X049839Y055821D01*
X049736Y055864D01*
X049625Y055879D01*
D02*
G37*
G36*
X0494D02*
X049275D01*
X049164Y055864D01*
X049061Y055821D01*
X048972Y055753D01*
X048904Y055664D01*
X048861Y055561D01*
X048853Y0555D01*
X0494D01*
Y055879D01*
D02*
G37*
G36*
X044602Y055695D02*
X0446D01*
Y05535D01*
X044945D01*
Y055352D01*
X044918Y055453D01*
X044866Y055543D01*
X044793Y055616D01*
X044703Y055668D01*
X044602Y055695D01*
D02*
G37*
G36*
X0445D02*
X044498D01*
X044397Y055668D01*
X044307Y055616D01*
X044234Y055543D01*
X044182Y055453D01*
X044155Y055352D01*
Y05535D01*
X0445D01*
Y055695D01*
D02*
G37*
G36*
X036388Y0556D02*
X03585D01*
Y055311D01*
X036056D01*
X036144Y055322D01*
X036225Y055356D01*
X036296Y05541D01*
X03635Y05548D01*
X036383Y055562D01*
X036388Y0556D01*
D02*
G37*
G36*
X03575D02*
X035212D01*
X035217Y055562D01*
X03525Y05548D01*
X035304Y05541D01*
X035375Y055356D01*
X035456Y055322D01*
X035544Y055311D01*
X03575D01*
Y0556D01*
D02*
G37*
G36*
X026388D02*
X02585D01*
Y055311D01*
X026056D01*
X026144Y055322D01*
X026225Y055356D01*
X026296Y05541D01*
X02635Y05548D01*
X026383Y055562D01*
X026388Y0556D01*
D02*
G37*
G36*
X02575D02*
X025212D01*
X025217Y055562D01*
X02525Y05548D01*
X025304Y05541D01*
X025375Y055356D01*
X025456Y055322D01*
X025544Y055311D01*
X02575D01*
Y0556D01*
D02*
G37*
G36*
X018552Y055895D02*
X018448D01*
X018347Y055868D01*
X018257Y055816D01*
X018184Y055743D01*
X018132Y055653D01*
X018105Y055552D01*
Y055448D01*
X018132Y055347D01*
X018184Y055257D01*
X018257Y055184D01*
X018347Y055132D01*
X018448Y055105D01*
X018552D01*
X018653Y055132D01*
X018743Y055184D01*
X018816Y055257D01*
X018868Y055347D01*
X018895Y055448D01*
Y055552D01*
X018868Y055653D01*
X018816Y055743D01*
X018743Y055816D01*
X018653Y055868D01*
X018552Y055895D01*
D02*
G37*
G36*
X050047Y0554D02*
X0495D01*
Y055021D01*
X049625D01*
X049736Y055036D01*
X049839Y055079D01*
X049928Y055147D01*
X049996Y055236D01*
X050039Y055339D01*
X050047Y0554D01*
D02*
G37*
G36*
X0494D02*
X048853D01*
X048861Y055339D01*
X048904Y055236D01*
X048972Y055147D01*
X049061Y055079D01*
X049164Y055036D01*
X049275Y055021D01*
X0494D01*
Y0554D01*
D02*
G37*
G36*
X044945Y05525D02*
X0446D01*
Y054905D01*
X044602D01*
X044703Y054932D01*
X044793Y054984D01*
X044866Y055057D01*
X044918Y055147D01*
X044945Y055248D01*
Y05525D01*
D02*
G37*
G36*
X0445D02*
X044155D01*
Y055248D01*
X044182Y055147D01*
X044234Y055057D01*
X044307Y054984D01*
X044397Y054932D01*
X044498Y054905D01*
X0445D01*
Y05525D01*
D02*
G37*
G36*
X018552Y054895D02*
X018448D01*
X018347Y054868D01*
X018257Y054816D01*
X018184Y054743D01*
X018132Y054653D01*
X018105Y054552D01*
Y054448D01*
X018132Y054347D01*
X018184Y054257D01*
X018257Y054184D01*
X018347Y054132D01*
X018448Y054105D01*
X018552D01*
X018653Y054132D01*
X018743Y054184D01*
X018816Y054257D01*
X018868Y054347D01*
X018895Y054448D01*
Y054552D01*
X018868Y054653D01*
X018816Y054743D01*
X018743Y054816D01*
X018653Y054868D01*
X018552Y054895D01*
D02*
G37*
G36*
X0564Y05435D02*
X05605D01*
Y054D01*
X0564D01*
Y05435D01*
D02*
G37*
G36*
X05595D02*
X0556D01*
Y054D01*
X05595D01*
Y05435D01*
D02*
G37*
G36*
X05195Y05415D02*
X05175D01*
Y05395D01*
X05195D01*
Y05415D01*
D02*
G37*
G36*
X0564Y0539D02*
X05605D01*
Y05355D01*
X0564D01*
Y0539D01*
D02*
G37*
G36*
X05595D02*
X0556D01*
Y05355D01*
X05595D01*
Y0539D01*
D02*
G37*
G36*
X0653Y054353D02*
X0647D01*
X064596Y05434D01*
X064498Y054299D01*
X064415Y054235D01*
X064351Y054152D01*
X06431Y054054D01*
X064297Y05395D01*
X06431Y053846D01*
X064351Y053748D01*
X064415Y053665D01*
X064498Y053601D01*
X064596Y05356D01*
X0647Y053547D01*
X0653D01*
X065404Y05356D01*
X065502Y053601D01*
X065585Y053665D01*
X065649Y053748D01*
X06569Y053846D01*
X065703Y05395D01*
X06569Y054054D01*
X065649Y054152D01*
X065585Y054235D01*
X065502Y054299D01*
X065404Y05434D01*
X0653Y054353D01*
D02*
G37*
G36*
X0446Y054047D02*
Y0535D01*
X045004D01*
Y0536D01*
X044988Y053717D01*
X044943Y053827D01*
X044871Y053921D01*
X044777Y053993D01*
X044667Y054038D01*
X0446Y054047D01*
D02*
G37*
G36*
X0445D02*
X044433Y054038D01*
X044323Y053993D01*
X044229Y053921D01*
X044157Y053827D01*
X044112Y053717D01*
X044096Y0536D01*
Y0535D01*
X0445D01*
Y054047D01*
D02*
G37*
G36*
X0476Y053997D02*
Y05345D01*
X048004D01*
Y05355D01*
X047988Y053667D01*
X047943Y053777D01*
X047871Y053871D01*
X047777Y053943D01*
X047667Y053988D01*
X0476Y053997D01*
D02*
G37*
G36*
X0475D02*
X047433Y053988D01*
X047323Y053943D01*
X047229Y053871D01*
X047157Y053777D01*
X047112Y053667D01*
X047096Y05355D01*
Y05345D01*
X0475D01*
Y053997D01*
D02*
G37*
G36*
X048004Y05335D02*
X0476D01*
Y052803D01*
X047667Y052812D01*
X047777Y052857D01*
X047871Y052929D01*
X047943Y053023D01*
X047988Y053133D01*
X048004Y05325D01*
Y05335D01*
D02*
G37*
G36*
X0475D02*
X047096D01*
Y05325D01*
X047112Y053133D01*
X047157Y053023D01*
X047229Y052929D01*
X047323Y052857D01*
X047433Y052812D01*
X0475Y052803D01*
Y05335D01*
D02*
G37*
G36*
X0653Y053353D02*
X0647D01*
X064596Y05334D01*
X064498Y053299D01*
X064415Y053235D01*
X064351Y053152D01*
X06431Y053054D01*
X064297Y05295D01*
X06431Y052846D01*
X064351Y052748D01*
X064415Y052665D01*
X064498Y052601D01*
X064596Y05256D01*
X0647Y052547D01*
X0653D01*
X065404Y05256D01*
X065502Y052601D01*
X065585Y052665D01*
X065649Y052748D01*
X06569Y052846D01*
X065703Y05295D01*
X06569Y053054D01*
X065649Y053152D01*
X065585Y053235D01*
X065502Y053299D01*
X065404Y05334D01*
X0653Y053353D01*
D02*
G37*
G36*
X0563D02*
X0557D01*
X055596Y05334D01*
X055498Y053299D01*
X055415Y053235D01*
X055351Y053152D01*
X05531Y053054D01*
X055297Y05295D01*
X05531Y052846D01*
X055351Y052748D01*
X055415Y052665D01*
X055498Y052601D01*
X055596Y05256D01*
X0557Y052547D01*
X0563D01*
X056404Y05256D01*
X056502Y052601D01*
X056585Y052665D01*
X056649Y052748D01*
X05669Y052846D01*
X056703Y05295D01*
X05669Y053054D01*
X056649Y053152D01*
X056585Y053235D01*
X056502Y053299D01*
X056404Y05334D01*
X0563Y053353D01*
D02*
G37*
G36*
X026056Y052989D02*
X025544D01*
X025456Y052978D01*
X025375Y052944D01*
X025304Y05289D01*
X025276Y052852D01*
X0216D01*
X021523Y052837D01*
X021457Y052793D01*
X021207Y052543D01*
X021163Y052477D01*
X021148Y0524D01*
Y03579D01*
X021107Y035766D01*
X021034Y035693D01*
X020982Y035603D01*
X020955Y035502D01*
Y035398D01*
X020982Y035297D01*
X021034Y035207D01*
X021107Y035134D01*
X021197Y035082D01*
X021298Y035055D01*
X021402D01*
X021503Y035082D01*
X021593Y035134D01*
X021666Y035207D01*
X021718Y035297D01*
X021745Y035398D01*
Y035502D01*
X021718Y035603D01*
X021666Y035693D01*
X021593Y035766D01*
X021552Y03579D01*
Y052316D01*
X021684Y052448D01*
X025276D01*
X025304Y05241D01*
X025375Y052356D01*
X025456Y052322D01*
X025544Y052311D01*
X026056D01*
X026144Y052322D01*
X026225Y052356D01*
X026296Y05241D01*
X02635Y05248D01*
X026383Y052562D01*
X026395Y05265D01*
X026383Y052738D01*
X02635Y05282D01*
X026296Y05289D01*
X026225Y052944D01*
X026144Y052978D01*
X026056Y052989D01*
D02*
G37*
G36*
X043902Y052214D02*
X043656D01*
Y051692D01*
X043902D01*
Y052214D01*
D02*
G37*
G36*
X043556D02*
X043309D01*
Y051692D01*
X043556D01*
Y052214D01*
D02*
G37*
G36*
X0653Y052353D02*
X0647D01*
X064596Y05234D01*
X064498Y052299D01*
X064415Y052235D01*
X064351Y052152D01*
X06431Y052054D01*
X064297Y05195D01*
X06431Y051846D01*
X064351Y051748D01*
X064415Y051665D01*
X064498Y051601D01*
X064596Y05156D01*
X0647Y051547D01*
X0653D01*
X065404Y05156D01*
X065502Y051601D01*
X065585Y051665D01*
X065649Y051748D01*
X06569Y051846D01*
X065703Y05195D01*
X06569Y052054D01*
X065649Y052152D01*
X065585Y052235D01*
X065502Y052299D01*
X065404Y05234D01*
X0653Y052353D01*
D02*
G37*
G36*
X0563D02*
X0557D01*
X055596Y05234D01*
X055498Y052299D01*
X055415Y052235D01*
X055351Y052152D01*
X05531Y052054D01*
X055297Y05195D01*
X05531Y051846D01*
X055351Y051748D01*
X055415Y051665D01*
X055498Y051601D01*
X055596Y05156D01*
X0557Y051547D01*
X0563D01*
X056404Y05156D01*
X056502Y051601D01*
X056585Y051665D01*
X056649Y051748D01*
X05669Y051846D01*
X056703Y05195D01*
X05669Y052054D01*
X056649Y052152D01*
X056585Y052235D01*
X056502Y052299D01*
X056404Y05234D01*
X0563Y052353D01*
D02*
G37*
G36*
X036056Y051989D02*
X035544D01*
X035456Y051978D01*
X035375Y051944D01*
X035304Y05189D01*
X03525Y05182D01*
X035217Y051738D01*
X035205Y05165D01*
X035217Y051562D01*
X03525Y05148D01*
X035304Y05141D01*
X035375Y051356D01*
X035456Y051322D01*
X035544Y051311D01*
X036056D01*
X036144Y051322D01*
X036225Y051356D01*
X036296Y05141D01*
X03635Y05148D01*
X036383Y051562D01*
X036395Y05165D01*
X036383Y051738D01*
X03635Y05182D01*
X036296Y05189D01*
X036225Y051944D01*
X036144Y051978D01*
X036056Y051989D01*
D02*
G37*
G36*
X043902Y051592D02*
X043656D01*
Y051069D01*
X043902D01*
Y051592D01*
D02*
G37*
G36*
X043556D02*
X043309D01*
Y051069D01*
X043556D01*
Y051592D01*
D02*
G37*
G36*
X026056Y051989D02*
X025544D01*
X025456Y051978D01*
X025375Y051944D01*
X025304Y05189D01*
X02525Y05182D01*
X025217Y051738D01*
X025205Y05165D01*
X025217Y051562D01*
X02525Y05148D01*
X025304Y05141D01*
X025375Y051356D01*
X025456Y051322D01*
X025544Y051311D01*
X026056D01*
X026144Y051322D01*
X026225Y051356D01*
X026296Y05141D01*
X026324Y051448D01*
X027398D01*
Y050563D01*
X027348Y050558D01*
X027337Y050612D01*
X027293Y050678D01*
X027178Y050793D01*
X027112Y050837D01*
X027035Y050852D01*
X026324D01*
X026296Y05089D01*
X026225Y050944D01*
X026144Y050978D01*
X026056Y050989D01*
X025544D01*
X025456Y050978D01*
X025375Y050944D01*
X025304Y05089D01*
X02525Y05082D01*
X025217Y050738D01*
X025205Y05065D01*
X025217Y050562D01*
X02525Y05048D01*
X025304Y05041D01*
X025375Y050356D01*
X025456Y050322D01*
X025544Y050311D01*
X026056D01*
X026144Y050322D01*
X026225Y050356D01*
X026296Y05041D01*
X026324Y050448D01*
X026948D01*
Y039252D01*
X025115D01*
X025038Y039237D01*
X024972Y039193D01*
X024857Y039078D01*
X024813Y039012D01*
X024798Y038935D01*
Y03584D01*
X024757Y035816D01*
X024684Y035743D01*
X024632Y035653D01*
X024605Y035552D01*
Y035448D01*
X024632Y035347D01*
X024684Y035257D01*
X024757Y035184D01*
X024847Y035132D01*
X024948Y035105D01*
X025052D01*
X025153Y035132D01*
X025243Y035184D01*
X025316Y035257D01*
X025368Y035347D01*
X025395Y035448D01*
Y035552D01*
X025368Y035653D01*
X025316Y035743D01*
X025243Y035816D01*
X025202Y03584D01*
Y038848D01*
X027035D01*
X027112Y038863D01*
X027178Y038907D01*
X027293Y039022D01*
X027337Y039088D01*
X027348Y039142D01*
X027398Y039137D01*
Y038602D01*
X026115D01*
X026038Y038587D01*
X025972Y038543D01*
X025857Y038428D01*
X025813Y038362D01*
X025798Y038285D01*
Y03584D01*
X025757Y035816D01*
X025684Y035743D01*
X025632Y035653D01*
X025605Y035552D01*
Y035448D01*
X025632Y035347D01*
X025684Y035257D01*
X025757Y035184D01*
X025847Y035132D01*
X025948Y035105D01*
X026052D01*
X026153Y035132D01*
X026243Y035184D01*
X026316Y035257D01*
X026368Y035347D01*
X026395Y035448D01*
Y035552D01*
X026368Y035653D01*
X026316Y035743D01*
X026243Y035816D01*
X026202Y03584D01*
Y038198D01*
X027485D01*
X027562Y038213D01*
X027628Y038257D01*
X027743Y038372D01*
X027787Y038438D01*
X027802Y038515D01*
Y051535D01*
X027787Y051612D01*
X027743Y051678D01*
X027628Y051793D01*
X027562Y051837D01*
X027485Y051852D01*
X026324D01*
X026296Y05189D01*
X026225Y051944D01*
X026144Y051978D01*
X026056Y051989D01*
D02*
G37*
G36*
X0653Y051353D02*
X0647D01*
X064596Y05134D01*
X064498Y051299D01*
X064415Y051235D01*
X064351Y051152D01*
X06431Y051054D01*
X064297Y05095D01*
X06431Y050846D01*
X064351Y050748D01*
X064415Y050665D01*
X064498Y050601D01*
X064596Y05056D01*
X0647Y050547D01*
X0653D01*
X065404Y05056D01*
X065502Y050601D01*
X065585Y050665D01*
X065649Y050748D01*
X06569Y050846D01*
X065703Y05095D01*
X06569Y051054D01*
X065649Y051152D01*
X065585Y051235D01*
X065502Y051299D01*
X065404Y05134D01*
X0653Y051353D01*
D02*
G37*
G36*
X036056Y050989D02*
X035544D01*
X035456Y050978D01*
X035375Y050944D01*
X035304Y05089D01*
X035276Y050852D01*
X0324D01*
X032323Y050837D01*
X032257Y050793D01*
X032007Y050543D01*
X031963Y050477D01*
X031948Y0504D01*
Y03587D01*
X03178D01*
Y03513D01*
X03252D01*
Y03587D01*
X032352D01*
Y050316D01*
X032484Y050448D01*
X035276D01*
X035304Y05041D01*
X035375Y050356D01*
X035456Y050322D01*
X035544Y050311D01*
X036056D01*
X036144Y050322D01*
X036225Y050356D01*
X036296Y05041D01*
X03635Y05048D01*
X036383Y050562D01*
X036395Y05065D01*
X036383Y050738D01*
X03635Y05082D01*
X036296Y05089D01*
X036225Y050944D01*
X036144Y050978D01*
X036056Y050989D01*
D02*
G37*
G36*
X0564Y05035D02*
X05605D01*
Y05D01*
X0564D01*
Y05035D01*
D02*
G37*
G36*
X05595D02*
X0556D01*
Y05D01*
X05595D01*
Y05035D01*
D02*
G37*
G36*
X0564Y0499D02*
X05605D01*
Y04955D01*
X0564D01*
Y0499D01*
D02*
G37*
G36*
X05595D02*
X0556D01*
Y04955D01*
X05595D01*
Y0499D01*
D02*
G37*
G36*
X0653Y050353D02*
X0647D01*
X064596Y05034D01*
X064498Y050299D01*
X064415Y050235D01*
X064351Y050152D01*
X06431Y050054D01*
X064297Y04995D01*
X06431Y049846D01*
X064351Y049748D01*
X064415Y049665D01*
X064498Y049601D01*
X064596Y04956D01*
X0647Y049547D01*
X0653D01*
X065404Y04956D01*
X065502Y049601D01*
X065585Y049665D01*
X065649Y049748D01*
X06569Y049846D01*
X065703Y04995D01*
X06569Y050054D01*
X065649Y050152D01*
X065585Y050235D01*
X065502Y050299D01*
X065404Y05034D01*
X0653Y050353D01*
D02*
G37*
G36*
X036056Y049989D02*
X035544D01*
X035456Y049978D01*
X035375Y049944D01*
X035304Y04989D01*
X035276Y049852D01*
X033265D01*
X033188Y049837D01*
X033122Y049793D01*
X033007Y049678D01*
X032963Y049612D01*
X032948Y049535D01*
Y03581D01*
X032923Y035796D01*
X032854Y035727D01*
X032806Y035643D01*
X03278Y035549D01*
Y035451D01*
X032806Y035357D01*
X032854Y035273D01*
X032923Y035204D01*
X033007Y035156D01*
X033101Y03513D01*
X033199D01*
X033293Y035156D01*
X033377Y035204D01*
X033446Y035273D01*
X033494Y035357D01*
X03352Y035451D01*
Y035549D01*
X033494Y035643D01*
X033446Y035727D01*
X033377Y035796D01*
X033352Y03581D01*
Y049448D01*
X035276D01*
X035304Y04941D01*
X035375Y049356D01*
X035456Y049322D01*
X035544Y049311D01*
X036056D01*
X036144Y049322D01*
X036225Y049356D01*
X036296Y04941D01*
X03635Y04948D01*
X036383Y049562D01*
X036395Y04965D01*
X036383Y049738D01*
X03635Y04982D01*
X036296Y04989D01*
X036225Y049944D01*
X036144Y049978D01*
X036056Y049989D01*
D02*
G37*
G36*
X026056D02*
X025544D01*
X025456Y049978D01*
X025375Y049944D01*
X025304Y04989D01*
X02525Y04982D01*
X025217Y049738D01*
X025205Y04965D01*
X025217Y049562D01*
X02525Y04948D01*
X025304Y04941D01*
X025375Y049356D01*
X025456Y049322D01*
X025544Y049311D01*
X026056D01*
X026144Y049322D01*
X026225Y049356D01*
X026296Y04941D01*
X02635Y04948D01*
X026383Y049562D01*
X026395Y04965D01*
X026383Y049738D01*
X02635Y04982D01*
X026296Y04989D01*
X026225Y049944D01*
X026144Y049978D01*
X026056Y049989D01*
D02*
G37*
G36*
X0653Y049353D02*
X0647D01*
X064596Y04934D01*
X064498Y049299D01*
X064415Y049235D01*
X064351Y049152D01*
X06431Y049054D01*
X064297Y04895D01*
X06431Y048846D01*
X064351Y048748D01*
X064415Y048665D01*
X064498Y048601D01*
X064596Y04856D01*
X0647Y048547D01*
X0653D01*
X065404Y04856D01*
X065502Y048601D01*
X065585Y048665D01*
X065649Y048748D01*
X06569Y048846D01*
X065703Y04895D01*
X06569Y049054D01*
X065649Y049152D01*
X065585Y049235D01*
X065502Y049299D01*
X065404Y04934D01*
X0653Y049353D01*
D02*
G37*
G36*
X036056Y048989D02*
X035544D01*
X035456Y048978D01*
X035375Y048944D01*
X035304Y04889D01*
X035276Y048852D01*
X03435D01*
X034273Y048837D01*
X034207Y048793D01*
X034007Y048593D01*
X033963Y048527D01*
X033948Y04845D01*
Y03581D01*
X033923Y035796D01*
X033854Y035727D01*
X033806Y035643D01*
X03378Y035549D01*
Y035451D01*
X033806Y035357D01*
X033854Y035273D01*
X033923Y035204D01*
X034007Y035156D01*
X034101Y03513D01*
X034199D01*
X034293Y035156D01*
X034377Y035204D01*
X034446Y035273D01*
X034494Y035357D01*
X03452Y035451D01*
Y035549D01*
X034494Y035643D01*
X034446Y035727D01*
X034377Y035796D01*
X034352Y03581D01*
Y048366D01*
X034434Y048448D01*
X035276D01*
X035304Y04841D01*
X035375Y048356D01*
X035456Y048322D01*
X035544Y048311D01*
X036056D01*
X036144Y048322D01*
X036225Y048356D01*
X036296Y04841D01*
X03635Y04848D01*
X036383Y048562D01*
X036395Y04865D01*
X036383Y048738D01*
X03635Y04882D01*
X036296Y04889D01*
X036225Y048944D01*
X036144Y048978D01*
X036056Y048989D01*
D02*
G37*
G36*
X026056D02*
X025544D01*
X025456Y048978D01*
X025375Y048944D01*
X025304Y04889D01*
X025276Y048852D01*
X022815D01*
X022738Y048837D01*
X022672Y048793D01*
X022457Y048578D01*
X022413Y048512D01*
X022398Y048435D01*
Y040437D01*
X022385Y04043D01*
X02232Y040365D01*
X022274Y040285D01*
X02225Y040196D01*
Y040104D01*
X022274Y040015D01*
X02232Y039935D01*
X022385Y03987D01*
X022465Y039824D01*
X022554Y0398D01*
X022646D01*
X022735Y039824D01*
X022815Y03987D01*
X02288Y039935D01*
X022926Y040015D01*
X02295Y040104D01*
Y040196D01*
X022926Y040285D01*
X02288Y040365D01*
X022815Y04043D01*
X022802Y040437D01*
Y048351D01*
X022899Y048448D01*
X025276D01*
X025304Y04841D01*
X025375Y048356D01*
X025456Y048322D01*
X025544Y048311D01*
X026056D01*
X026144Y048322D01*
X026225Y048356D01*
X026296Y04841D01*
X02635Y04848D01*
X026383Y048562D01*
X026395Y04865D01*
X026383Y048738D01*
X02635Y04882D01*
X026296Y04889D01*
X026225Y048944D01*
X026144Y048978D01*
X026056Y048989D01*
D02*
G37*
G36*
X057802Y048495D02*
X0578D01*
Y04815D01*
X058145D01*
Y048152D01*
X058118Y048253D01*
X058066Y048343D01*
X057993Y048416D01*
X057903Y048468D01*
X057802Y048495D01*
D02*
G37*
G36*
X0577D02*
X057698D01*
X057597Y048468D01*
X057507Y048416D01*
X057434Y048343D01*
X057382Y048253D01*
X057355Y048152D01*
Y04815D01*
X0577D01*
Y048495D01*
D02*
G37*
G36*
X0654Y04835D02*
X06505D01*
Y048D01*
X0654D01*
Y04835D01*
D02*
G37*
G36*
X06495D02*
X0646D01*
Y048D01*
X06495D01*
Y04835D01*
D02*
G37*
G36*
X058145Y04805D02*
X0578D01*
Y047705D01*
X057802D01*
X057903Y047732D01*
X057993Y047784D01*
X058066Y047857D01*
X058118Y047947D01*
X058145Y048048D01*
Y04805D01*
D02*
G37*
G36*
X0577D02*
X057355D01*
Y048048D01*
X057382Y047947D01*
X057434Y047857D01*
X057507Y047784D01*
X057597Y047732D01*
X057698Y047705D01*
X0577D01*
Y04805D01*
D02*
G37*
G36*
X0654Y0479D02*
X06505D01*
Y04755D01*
X0654D01*
Y0479D01*
D02*
G37*
G36*
X06495D02*
X0646D01*
Y04755D01*
X06495D01*
Y0479D01*
D02*
G37*
G36*
X036056Y047989D02*
X035544D01*
X035456Y047978D01*
X035375Y047944D01*
X035304Y04789D01*
X03525Y04782D01*
X035248Y047814D01*
X035225D01*
X035147Y047798D01*
X035082Y047754D01*
X034966Y047639D01*
X034923Y047573D01*
X034907Y047496D01*
Y03578D01*
X034854Y035727D01*
X034806Y035643D01*
X03478Y035549D01*
Y035451D01*
X034806Y035357D01*
X034854Y035273D01*
X034923Y035204D01*
X035007Y035156D01*
X035101Y03513D01*
X035199D01*
X035293Y035156D01*
X035377Y035204D01*
X035446Y035273D01*
X035494Y035357D01*
X03552Y035451D01*
Y035549D01*
X035494Y035643D01*
X035446Y035727D01*
X035377Y035796D01*
X035312Y035833D01*
Y042314D01*
X036392D01*
Y042986D01*
X035312D01*
Y043348D01*
X035357Y04337D01*
X035375Y043356D01*
X035456Y043322D01*
X035544Y043311D01*
X036056D01*
X036144Y043322D01*
X036225Y043356D01*
X036296Y04341D01*
X03635Y04348D01*
X036383Y043562D01*
X036395Y04365D01*
X036383Y043738D01*
X03635Y04382D01*
X036296Y04389D01*
X036225Y043944D01*
X036144Y043978D01*
X036056Y043989D01*
X035544D01*
X035456Y043978D01*
X035375Y043944D01*
X035357Y04393D01*
X035312Y043952D01*
Y044348D01*
X035357Y04437D01*
X035375Y044356D01*
X035456Y044322D01*
X035544Y044311D01*
X036056D01*
X036144Y044322D01*
X036225Y044356D01*
X036296Y04441D01*
X03635Y04448D01*
X036383Y044562D01*
X036395Y04465D01*
X036383Y044738D01*
X03635Y04482D01*
X036296Y04489D01*
X036225Y044944D01*
X036144Y044978D01*
X036056Y044989D01*
X035544D01*
X035456Y044978D01*
X035375Y044944D01*
X035357Y04493D01*
X035312Y044952D01*
Y045348D01*
X035357Y04537D01*
X035375Y045356D01*
X035456Y045322D01*
X035544Y045311D01*
X036056D01*
X036144Y045322D01*
X036225Y045356D01*
X036296Y04541D01*
X03635Y04548D01*
X036383Y045562D01*
X036395Y04565D01*
X036383Y045738D01*
X03635Y04582D01*
X036296Y04589D01*
X036225Y045944D01*
X036144Y045978D01*
X036056Y045989D01*
X035544D01*
X035456Y045978D01*
X035375Y045944D01*
X035357Y04593D01*
X035312Y045952D01*
Y046348D01*
X035357Y04637D01*
X035375Y046356D01*
X035456Y046322D01*
X035544Y046311D01*
X036056D01*
X036144Y046322D01*
X036225Y046356D01*
X036296Y04641D01*
X03635Y04648D01*
X036383Y046562D01*
X036395Y04665D01*
X036383Y046738D01*
X03635Y04682D01*
X036296Y04689D01*
X036225Y046944D01*
X036144Y046978D01*
X036056Y046989D01*
X035544D01*
X035456Y046978D01*
X035375Y046944D01*
X035357Y04693D01*
X035312Y046952D01*
Y047348D01*
X035357Y04737D01*
X035375Y047356D01*
X035456Y047322D01*
X035544Y047311D01*
X036056D01*
X036144Y047322D01*
X036225Y047356D01*
X036296Y04741D01*
X03635Y04748D01*
X036383Y047562D01*
X036395Y04765D01*
X036383Y047738D01*
X03635Y04782D01*
X036296Y04789D01*
X036225Y047944D01*
X036144Y047978D01*
X036056Y047989D01*
D02*
G37*
G36*
X026056D02*
X025544D01*
X025456Y047978D01*
X025375Y047944D01*
X025304Y04789D01*
X02525Y04782D01*
X025217Y047738D01*
X025205Y04765D01*
X025217Y047562D01*
X02525Y04748D01*
X025304Y04741D01*
X025375Y047356D01*
X025456Y047322D01*
X025544Y047311D01*
X026056D01*
X026144Y047322D01*
X026225Y047356D01*
X026296Y04741D01*
X02635Y04748D01*
X026383Y047562D01*
X026395Y04765D01*
X026383Y047738D01*
X02635Y04782D01*
X026296Y04789D01*
X026225Y047944D01*
X026144Y047978D01*
X026056Y047989D01*
D02*
G37*
G36*
Y046989D02*
X025544D01*
X025456Y046978D01*
X025375Y046944D01*
X025304Y04689D01*
X02525Y04682D01*
X025217Y046738D01*
X025205Y04665D01*
X025217Y046562D01*
X02525Y04648D01*
X025304Y04641D01*
X025375Y046356D01*
X025456Y046322D01*
X025544Y046311D01*
X026056D01*
X026144Y046322D01*
X026225Y046356D01*
X026296Y04641D01*
X02635Y04648D01*
X026383Y046562D01*
X026395Y04665D01*
X026383Y046738D01*
X02635Y04682D01*
X026296Y04689D01*
X026225Y046944D01*
X026144Y046978D01*
X026056Y046989D01*
D02*
G37*
G36*
Y045989D02*
X025544D01*
X025456Y045978D01*
X025375Y045944D01*
X025304Y04589D01*
X02525Y04582D01*
X025217Y045738D01*
X025205Y04565D01*
X025217Y045562D01*
X02525Y04548D01*
X025304Y04541D01*
X025375Y045356D01*
X025456Y045322D01*
X025544Y045311D01*
X026056D01*
X026144Y045322D01*
X026225Y045356D01*
X026296Y04541D01*
X02635Y04548D01*
X026383Y045562D01*
X026395Y04565D01*
X026383Y045738D01*
X02635Y04582D01*
X026296Y04589D01*
X026225Y045944D01*
X026144Y045978D01*
X026056Y045989D01*
D02*
G37*
G36*
Y044989D02*
X025544D01*
X025456Y044978D01*
X025375Y044944D01*
X025304Y04489D01*
X02525Y04482D01*
X025217Y044738D01*
X025205Y04465D01*
X025217Y044562D01*
X02525Y04448D01*
X025304Y04441D01*
X025375Y044356D01*
X025456Y044322D01*
X025544Y044311D01*
X026056D01*
X026144Y044322D01*
X026225Y044356D01*
X026296Y04441D01*
X02635Y04448D01*
X026383Y044562D01*
X026395Y04465D01*
X026383Y044738D01*
X02635Y04482D01*
X026296Y04489D01*
X026225Y044944D01*
X026144Y044978D01*
X026056Y044989D01*
D02*
G37*
G36*
Y043989D02*
X025544D01*
X025456Y043978D01*
X025375Y043944D01*
X025304Y04389D01*
X02525Y04382D01*
X025217Y043738D01*
X025205Y04365D01*
X025217Y043562D01*
X02525Y04348D01*
X025304Y04341D01*
X025375Y043356D01*
X025456Y043322D01*
X025544Y043311D01*
X026056D01*
X026144Y043322D01*
X026225Y043356D01*
X026296Y04341D01*
X02635Y04348D01*
X026383Y043562D01*
X026395Y04365D01*
X026383Y043738D01*
X02635Y04382D01*
X026296Y04389D01*
X026225Y043944D01*
X026144Y043978D01*
X026056Y043989D01*
D02*
G37*
G36*
Y042989D02*
X025544D01*
X025456Y042978D01*
X025375Y042944D01*
X025304Y04289D01*
X02525Y04282D01*
X025217Y042738D01*
X025205Y04265D01*
X025217Y042562D01*
X02525Y04248D01*
X025304Y04241D01*
X025375Y042356D01*
X025456Y042322D01*
X025544Y042311D01*
X026056D01*
X026144Y042322D01*
X026225Y042356D01*
X026296Y04241D01*
X02635Y04248D01*
X026383Y042562D01*
X026395Y04265D01*
X026383Y042738D01*
X02635Y04282D01*
X026296Y04289D01*
X026225Y042944D01*
X026144Y042978D01*
X026056Y042989D01*
D02*
G37*
G36*
X055499Y042233D02*
X055401D01*
X055305Y042208D01*
X055219Y042158D01*
X055149Y042088D01*
X0551Y042003D01*
X055074Y041907D01*
Y041808D01*
X0551Y041713D01*
X055149Y041627D01*
X055219Y041557D01*
X055305Y041508D01*
X055401Y041482D01*
X055499D01*
X055595Y041508D01*
X055681Y041557D01*
X055751Y041627D01*
X055767Y041656D01*
X057598D01*
Y041129D01*
X057518Y041119D01*
X057413Y041076D01*
X057323Y041007D01*
X057254Y040917D01*
X057211Y040812D01*
X057196Y0407D01*
X057211Y040588D01*
X057254Y040483D01*
X057323Y040393D01*
X057413Y040324D01*
X057518Y040281D01*
X05763Y040266D01*
X05797D01*
X058082Y040281D01*
X058187Y040324D01*
X058277Y040393D01*
X058346Y040483D01*
X058389Y040588D01*
X058404Y0407D01*
X058389Y040812D01*
X058346Y040917D01*
X058277Y041007D01*
X058187Y041076D01*
X058082Y041119D01*
X058002Y041129D01*
Y041743D01*
X057987Y04182D01*
X057943Y041886D01*
X057828Y042001D01*
X057762Y042045D01*
X057685Y04206D01*
X055767D01*
X055751Y042088D01*
X055681Y042158D01*
X055595Y042208D01*
X055499Y042233D01*
D02*
G37*
G36*
X016437Y040537D02*
X016263D01*
X016091Y040503D01*
X01593Y040436D01*
X015784Y040339D01*
X015661Y040216D01*
X015564Y04007D01*
X015497Y039909D01*
X015463Y039737D01*
Y039563D01*
X015497Y039391D01*
X015564Y03923D01*
X015661Y039084D01*
X015784Y038961D01*
X01593Y038864D01*
X016091Y038797D01*
X016263Y038763D01*
X016437D01*
X016609Y038797D01*
X01677Y038864D01*
X016916Y038961D01*
X017039Y039084D01*
X017136Y03923D01*
X017203Y039391D01*
X017237Y039563D01*
Y039737D01*
X017203Y039909D01*
X017136Y04007D01*
X017039Y040216D01*
X016916Y040339D01*
X01677Y040436D01*
X016609Y040503D01*
X016437Y040537D01*
D02*
G37*
G36*
X05797Y039134D02*
X05785D01*
Y03875D01*
X058397D01*
X058389Y038812D01*
X058346Y038917D01*
X058277Y039007D01*
X058187Y039076D01*
X058082Y039119D01*
X05797Y039134D01*
D02*
G37*
G36*
X05775D02*
X05763D01*
X057518Y039119D01*
X057413Y039076D01*
X057323Y039007D01*
X057254Y038917D01*
X057211Y038812D01*
X057203Y03875D01*
X05775D01*
Y039134D01*
D02*
G37*
G36*
X051837Y040487D02*
X051663D01*
X051491Y040453D01*
X05133Y040386D01*
X051184Y040289D01*
X051061Y040166D01*
X050964Y04002D01*
X050897Y039859D01*
X050863Y039687D01*
Y039513D01*
X050897Y039341D01*
X050964Y03918D01*
X051061Y039034D01*
X051184Y038911D01*
X05133Y038814D01*
X051491Y038747D01*
X051663Y038713D01*
X051837D01*
X052009Y038747D01*
X05217Y038814D01*
X052316Y038911D01*
X052439Y039034D01*
X052536Y03918D01*
X052603Y039341D01*
X052637Y039513D01*
Y039687D01*
X052603Y039859D01*
X052536Y04002D01*
X052439Y040166D01*
X052316Y040289D01*
X05217Y040386D01*
X052009Y040453D01*
X051837Y040487D01*
D02*
G37*
G36*
X058397Y03865D02*
X05785D01*
Y038266D01*
X05797D01*
X058082Y038281D01*
X058187Y038324D01*
X058277Y038393D01*
X058346Y038483D01*
X058389Y038588D01*
X058397Y03865D01*
D02*
G37*
G36*
X05775D02*
X057203D01*
X057211Y038588D01*
X057254Y038483D01*
X057323Y038393D01*
X057413Y038324D01*
X057518Y038281D01*
X05763Y038266D01*
X05775D01*
Y03865D01*
D02*
G37*
G36*
X05797Y040134D02*
X05763D01*
X057518Y040119D01*
X057413Y040076D01*
X057323Y040007D01*
X057254Y039917D01*
X057211Y039812D01*
X057196Y0397D01*
X057211Y039588D01*
X057254Y039483D01*
X057323Y039393D01*
X057413Y039324D01*
X057518Y039281D01*
X05763Y039266D01*
X05797D01*
X058082Y039281D01*
X058187Y039324D01*
X058277Y039393D01*
X058346Y039483D01*
X058352Y039498D01*
X059298D01*
Y039061D01*
X059193Y039D01*
X0591Y038907D01*
X059034Y038793D01*
X059Y038666D01*
Y038534D01*
X059034Y038407D01*
X0591Y038293D01*
X059193Y0382D01*
X059307Y038134D01*
X059434Y0381D01*
X059566D01*
X059693Y038134D01*
X059807Y0382D01*
X0599Y038293D01*
X059966Y038407D01*
X06Y038534D01*
Y038666D01*
X059966Y038793D01*
X0599Y038907D01*
X059807Y039D01*
X059702Y039061D01*
Y039498D01*
X062766D01*
X062848Y039416D01*
Y038961D01*
X06277Y038929D01*
X062673Y038864D01*
X06259Y038781D01*
X062525Y038684D01*
X062481Y038577D01*
X062458Y038462D01*
Y038346D01*
X062481Y038231D01*
X062525Y038123D01*
X06259Y038026D01*
X062673Y037944D01*
X06277Y037879D01*
X062877Y037835D01*
X062992Y037812D01*
X063108D01*
X063223Y037835D01*
X06333Y037879D01*
X063427Y037944D01*
X06351Y038026D01*
X063575Y038123D01*
X063619Y038231D01*
X063642Y038346D01*
Y038462D01*
X063619Y038577D01*
X063575Y038684D01*
X06351Y038781D01*
X063427Y038864D01*
X06333Y038929D01*
X063252Y038961D01*
Y0395D01*
X063237Y039577D01*
X063193Y039643D01*
X062993Y039843D01*
X062927Y039887D01*
X06285Y039902D01*
X058352D01*
X058346Y039917D01*
X058277Y040007D01*
X058187Y040076D01*
X058082Y040119D01*
X05797Y040134D01*
D02*
G37*
G36*
X055499Y038218D02*
X055401D01*
X055305Y038192D01*
X055219Y038143D01*
X055149Y038073D01*
X0551Y037987D01*
X055074Y037892D01*
Y037793D01*
X0551Y037697D01*
X055149Y037612D01*
X055219Y037542D01*
X055305Y037492D01*
X055401Y037467D01*
X055499D01*
X055595Y037492D01*
X055681Y037542D01*
X055751Y037612D01*
X0558Y037697D01*
X055826Y037793D01*
Y037892D01*
X0558Y037987D01*
X055751Y038073D01*
X055681Y038143D01*
X055595Y038192D01*
X055499Y038218D01*
D02*
G37*
G36*
X026056Y054989D02*
X025544D01*
X025456Y054978D01*
X025375Y054944D01*
X025304Y05489D01*
X02525Y05482D01*
X025217Y054738D01*
X025205Y05465D01*
X025217Y054562D01*
X02525Y05448D01*
X025304Y05441D01*
X025375Y054356D01*
X025456Y054322D01*
X025544Y054311D01*
X026056D01*
X026144Y054322D01*
X026225Y054356D01*
X026296Y05441D01*
X026324Y054448D01*
X029898D01*
Y037537D01*
X029885Y03753D01*
X02982Y037465D01*
X029802Y037434D01*
X029752Y037448D01*
Y053535D01*
X029737Y053612D01*
X029693Y053678D01*
X029578Y053793D01*
X029512Y053837D01*
X029435Y053852D01*
X026324D01*
X026296Y05389D01*
X026225Y053944D01*
X026144Y053978D01*
X026056Y053989D01*
X025544D01*
X025456Y053978D01*
X025375Y053944D01*
X025304Y05389D01*
X02525Y05382D01*
X025217Y053738D01*
X025205Y05365D01*
X025217Y053562D01*
X02525Y05348D01*
X025304Y05341D01*
X025375Y053356D01*
X025456Y053322D01*
X025544Y053311D01*
X026056D01*
X026144Y053322D01*
X026225Y053356D01*
X026296Y05341D01*
X026324Y053448D01*
X029348D01*
Y03594D01*
X029307Y035916D01*
X029234Y035843D01*
X029182Y035753D01*
X029155Y035652D01*
Y035548D01*
X029182Y035447D01*
X029234Y035357D01*
X029307Y035284D01*
X029397Y035232D01*
X029498Y035205D01*
X029602D01*
X029703Y035232D01*
X029793Y035284D01*
X029866Y035357D01*
X029918Y035447D01*
X029945Y035548D01*
Y035652D01*
X029918Y035753D01*
X029866Y035843D01*
X029793Y035916D01*
X029752Y03594D01*
Y037052D01*
X029802Y037066D01*
X02982Y037035D01*
X029885Y03697D01*
X029965Y036924D01*
X030054Y0369D01*
X030146D01*
X030235Y036924D01*
X030315Y03697D01*
X03038Y037035D01*
X030426Y037115D01*
X03045Y037204D01*
Y037296D01*
X030426Y037385D01*
X03038Y037465D01*
X030315Y03753D01*
X030302Y037537D01*
Y054535D01*
X030287Y054612D01*
X030243Y054678D01*
X030128Y054793D01*
X030062Y054837D01*
X029985Y054852D01*
X026324D01*
X026296Y05489D01*
X026225Y054944D01*
X026144Y054978D01*
X026056Y054989D01*
D02*
G37*
G36*
X030602Y035995D02*
X0306D01*
Y03565D01*
X030945D01*
Y035652D01*
X030918Y035753D01*
X030866Y035843D01*
X030793Y035916D01*
X030703Y035968D01*
X030602Y035995D01*
D02*
G37*
G36*
X0305D02*
X030498D01*
X030397Y035968D01*
X030307Y035916D01*
X030234Y035843D01*
X030182Y035753D01*
X030155Y035652D01*
Y03565D01*
X0305D01*
Y035995D01*
D02*
G37*
G36*
X024395Y035895D02*
X02405D01*
Y03555D01*
X024395D01*
Y035895D01*
D02*
G37*
G36*
X02395D02*
X023605D01*
Y03555D01*
X02395D01*
Y035895D01*
D02*
G37*
G36*
X020402Y035845D02*
X0204D01*
Y0355D01*
X020745D01*
Y035502D01*
X020718Y035603D01*
X020666Y035693D01*
X020593Y035766D01*
X020503Y035818D01*
X020402Y035845D01*
D02*
G37*
G36*
X0203D02*
X020298D01*
X020197Y035818D01*
X020107Y035766D01*
X020034Y035693D01*
X019982Y035603D01*
X019955Y035502D01*
Y0355D01*
X0203D01*
Y035845D01*
D02*
G37*
G36*
X030945Y03555D02*
X0306D01*
Y035205D01*
X030602D01*
X030703Y035232D01*
X030793Y035284D01*
X030866Y035357D01*
X030918Y035447D01*
X030945Y035548D01*
Y03555D01*
D02*
G37*
G36*
X0305D02*
X030155D01*
Y035548D01*
X030182Y035447D01*
X030234Y035357D01*
X030307Y035284D01*
X030397Y035232D01*
X030498Y035205D01*
X0305D01*
Y03555D01*
D02*
G37*
G36*
X028945Y035995D02*
X028155D01*
Y035205D01*
X028945D01*
Y035995D01*
D02*
G37*
G36*
X036056Y054989D02*
X035544D01*
X035456Y054978D01*
X035375Y054944D01*
X035304Y05489D01*
X03525Y05482D01*
X035217Y054738D01*
X035205Y05465D01*
X035217Y054562D01*
X03525Y05448D01*
X035304Y05441D01*
X035375Y054356D01*
X035456Y054322D01*
X035544Y054311D01*
X036056D01*
X036144Y054322D01*
X036225Y054356D01*
X036296Y05441D01*
X036324Y054448D01*
X038666D01*
X038948Y054166D01*
Y03581D01*
X038923Y035796D01*
X038854Y035727D01*
X038806Y035643D01*
X03878Y035549D01*
Y035451D01*
X038806Y035357D01*
X038854Y035273D01*
X038923Y035204D01*
X039007Y035156D01*
X039101Y03513D01*
X039199D01*
X039293Y035156D01*
X039377Y035204D01*
X039446Y035273D01*
X039494Y035357D01*
X03952Y035451D01*
Y035549D01*
X039494Y035643D01*
X039446Y035727D01*
X039377Y035796D01*
X039352Y03581D01*
Y05425D01*
X039337Y054327D01*
X039293Y054393D01*
X038893Y054793D01*
X038827Y054837D01*
X03875Y054852D01*
X036324D01*
X036296Y05489D01*
X036225Y054944D01*
X036144Y054978D01*
X036056Y054989D01*
D02*
G37*
G36*
Y053989D02*
X035544D01*
X035456Y053978D01*
X035375Y053944D01*
X035304Y05389D01*
X03525Y05382D01*
X035217Y053738D01*
X035205Y05365D01*
X035217Y053562D01*
X03525Y05348D01*
X035304Y05341D01*
X035375Y053356D01*
X035456Y053322D01*
X035544Y053311D01*
X036056D01*
X036144Y053322D01*
X036225Y053356D01*
X036296Y05341D01*
X036324Y053448D01*
X037916D01*
X037948Y053416D01*
Y03581D01*
X037923Y035796D01*
X037854Y035727D01*
X037806Y035643D01*
X03778Y035549D01*
Y035451D01*
X037806Y035357D01*
X037854Y035273D01*
X037923Y035204D01*
X038007Y035156D01*
X038101Y03513D01*
X038199D01*
X038293Y035156D01*
X038377Y035204D01*
X038446Y035273D01*
X038494Y035357D01*
X03852Y035451D01*
Y035549D01*
X038494Y035643D01*
X038446Y035727D01*
X038377Y035796D01*
X038352Y03581D01*
Y0535D01*
X038337Y053577D01*
X038293Y053643D01*
X038143Y053793D01*
X038077Y053837D01*
X038Y053852D01*
X036324D01*
X036296Y05389D01*
X036225Y053944D01*
X036144Y053978D01*
X036056Y053989D01*
D02*
G37*
G36*
Y052989D02*
X035544D01*
X035456Y052978D01*
X035375Y052944D01*
X035304Y05289D01*
X03525Y05282D01*
X035217Y052738D01*
X035205Y05265D01*
X035217Y052562D01*
X03525Y05248D01*
X035304Y05241D01*
X035375Y052356D01*
X035456Y052322D01*
X035544Y052311D01*
X036056D01*
X036144Y052322D01*
X036225Y052356D01*
X036296Y05241D01*
X036324Y052448D01*
X036916D01*
X036948Y052416D01*
Y03581D01*
X036923Y035796D01*
X036854Y035727D01*
X036806Y035643D01*
X03678Y035549D01*
Y035451D01*
X036806Y035357D01*
X036854Y035273D01*
X036923Y035204D01*
X037007Y035156D01*
X037101Y03513D01*
X037199D01*
X037293Y035156D01*
X037377Y035204D01*
X037446Y035273D01*
X037494Y035357D01*
X03752Y035451D01*
Y035549D01*
X037494Y035643D01*
X037446Y035727D01*
X037377Y035796D01*
X037352Y03581D01*
Y0525D01*
X037337Y052577D01*
X037293Y052643D01*
X037143Y052793D01*
X037077Y052837D01*
X037Y052852D01*
X036324D01*
X036296Y05289D01*
X036225Y052944D01*
X036144Y052978D01*
X036056Y052989D01*
D02*
G37*
G36*
X036199Y03587D02*
X036101D01*
X036007Y035844D01*
X035923Y035796D01*
X035854Y035727D01*
X035806Y035643D01*
X03578Y035549D01*
Y035451D01*
X035806Y035357D01*
X035854Y035273D01*
X035923Y035204D01*
X036007Y035156D01*
X036101Y03513D01*
X036199D01*
X036293Y035156D01*
X036377Y035204D01*
X036446Y035273D01*
X036494Y035357D01*
X03652Y035451D01*
Y035549D01*
X036494Y035643D01*
X036446Y035727D01*
X036377Y035796D01*
X036293Y035844D01*
X036199Y03587D01*
D02*
G37*
G36*
X024395Y03545D02*
X02405D01*
Y035105D01*
X024395D01*
Y03545D01*
D02*
G37*
G36*
X02395D02*
X023605D01*
Y035105D01*
X02395D01*
Y03545D01*
D02*
G37*
G36*
X020745Y0354D02*
X0204D01*
Y035055D01*
X020402D01*
X020503Y035082D01*
X020593Y035134D01*
X020666Y035207D01*
X020718Y035297D01*
X020745Y035398D01*
Y0354D01*
D02*
G37*
G36*
X0203D02*
X019955D01*
Y035398D01*
X019982Y035297D01*
X020034Y035207D01*
X020107Y035134D01*
X020197Y035082D01*
X020298Y035055D01*
X0203D01*
Y0354D01*
D02*
G37*
G36*
X019402Y035845D02*
X019298D01*
X019197Y035818D01*
X019107Y035766D01*
X019034Y035693D01*
X018982Y035603D01*
X018955Y035502D01*
Y035398D01*
X018982Y035297D01*
X019034Y035207D01*
X019107Y035134D01*
X019197Y035082D01*
X019298Y035055D01*
X019402D01*
X019503Y035082D01*
X019593Y035134D01*
X019666Y035207D01*
X019718Y035297D01*
X019745Y035398D01*
Y035502D01*
X019718Y035603D01*
X019666Y035693D01*
X019593Y035766D01*
X019503Y035818D01*
X019402Y035845D01*
D02*
G37*
G36*
X018402D02*
X018298D01*
X018197Y035818D01*
X018107Y035766D01*
X018034Y035693D01*
X017982Y035603D01*
X017955Y035502D01*
Y035398D01*
X017982Y035297D01*
X018034Y035207D01*
X018107Y035134D01*
X018197Y035082D01*
X018298Y035055D01*
X018402D01*
X018503Y035082D01*
X018593Y035134D01*
X018666Y035207D01*
X018718Y035297D01*
X018745Y035398D01*
Y035502D01*
X018718Y035603D01*
X018666Y035693D01*
X018593Y035766D01*
X018503Y035818D01*
X018402Y035845D01*
D02*
G37*
G36*
X017402D02*
X017298D01*
X017197Y035818D01*
X017107Y035766D01*
X017034Y035693D01*
X016982Y035603D01*
X016955Y035502D01*
Y035398D01*
X016982Y035297D01*
X017034Y035207D01*
X017107Y035134D01*
X017197Y035082D01*
X017298Y035055D01*
X017402D01*
X017503Y035082D01*
X017593Y035134D01*
X017666Y035207D01*
X017718Y035297D01*
X017745Y035398D01*
Y035502D01*
X017718Y035603D01*
X017666Y035693D01*
X017593Y035766D01*
X017503Y035818D01*
X017402Y035845D01*
D02*
G37*
G36*
X016402D02*
X016298D01*
X016197Y035818D01*
X016107Y035766D01*
X016034Y035693D01*
X015982Y035603D01*
X015955Y035502D01*
Y035398D01*
X015982Y035297D01*
X016034Y035207D01*
X016107Y035134D01*
X016197Y035082D01*
X016298Y035055D01*
X016402D01*
X016503Y035082D01*
X016593Y035134D01*
X016666Y035207D01*
X016718Y035297D01*
X016745Y035398D01*
Y035502D01*
X016718Y035603D01*
X016666Y035693D01*
X016593Y035766D01*
X016503Y035818D01*
X016402Y035845D01*
D02*
G37*
G36*
X020546Y04855D02*
X020454D01*
X020365Y048526D01*
X020285Y04848D01*
X02022Y048415D01*
X020174Y048335D01*
X02015Y048246D01*
Y048154D01*
X020174Y048065D01*
X02022Y047985D01*
X020285Y04792D01*
X020348Y047884D01*
Y037002D01*
X015465D01*
X015388Y036987D01*
X015322Y036943D01*
X015207Y036828D01*
X015163Y036762D01*
X015148Y036685D01*
Y035845D01*
X014955D01*
Y035055D01*
X015745D01*
Y035845D01*
X015552D01*
Y036598D01*
X020435D01*
X020512Y036613D01*
X020578Y036657D01*
X020693Y036772D01*
X020737Y036838D01*
X020752Y036915D01*
Y047957D01*
X02078Y047985D01*
X020826Y048065D01*
X02085Y048154D01*
Y048246D01*
X020826Y048335D01*
X02078Y048415D01*
X020715Y04848D01*
X020635Y048526D01*
X020546Y04855D01*
D02*
G37*
G36*
X027052Y035895D02*
X026948D01*
X026847Y035868D01*
X026757Y035816D01*
X026684Y035743D01*
X026632Y035653D01*
X026605Y035552D01*
Y035448D01*
X026632Y035347D01*
X026684Y035257D01*
X026701Y03524D01*
Y035055D01*
X026645Y034999D01*
X022705D01*
X022649Y035055D01*
Y03519D01*
X022666Y035207D01*
X022718Y035297D01*
X022745Y035398D01*
Y035502D01*
X022718Y035603D01*
X022666Y035693D01*
X022593Y035766D01*
X022503Y035818D01*
X022402Y035845D01*
X022298D01*
X022197Y035818D01*
X022107Y035766D01*
X022034Y035693D01*
X021982Y035603D01*
X021955Y035502D01*
Y035398D01*
X021982Y035297D01*
X022034Y035207D01*
X022051Y03519D01*
Y034931D01*
X022061Y034853D01*
X022091Y034781D01*
X022138Y034719D01*
X022369Y034488D01*
X022431Y034441D01*
X022461Y034428D01*
X022503Y034411D01*
X022581Y034401D01*
X026769D01*
X026847Y034411D01*
X026919Y034441D01*
X026981Y034488D01*
X027212Y034719D01*
X027259Y034781D01*
X027272Y034811D01*
X027289Y034853D01*
X027299Y034931D01*
Y03524D01*
X027316Y035257D01*
X027368Y035347D01*
X027395Y035448D01*
Y035552D01*
X027368Y035653D01*
X027316Y035743D01*
X027243Y035816D01*
X027153Y035868D01*
X027052Y035895D01*
D02*
G37*
%LPD*%
D15*
X03975Y0593D02*
X042D01*
X03575D02*
X03975D01*
X0595Y0416D02*
Y043219D01*
X059269Y04345D02*
X0595Y043219D01*
X0404Y04345D02*
X059269D01*
X03975Y0441D02*
X0404Y04345D01*
X03975Y0441D02*
Y0593D01*
X041875Y056425D02*
X043475D01*
X045726Y055581D02*
Y057643D01*
Y055581D02*
X045776Y055531D01*
X045957Y057874D02*
X046568D01*
X045726Y057643D02*
X045957Y057874D01*
X046568D02*
X046592Y05785D01*
X022581Y0347D02*
X026769D01*
X027Y034931D02*
Y0355D01*
X02235Y034931D02*
Y03545D01*
X026769Y0347D02*
X027Y034931D01*
X02235D02*
X022581Y0347D01*
X03575Y0593D02*
X0358Y05925D01*
Y05665D02*
Y05925D01*
X02245Y0593D02*
X03575D01*
X01965Y0565D02*
X02245Y0593D01*
X0185Y0565D02*
X01965D01*
X01705Y05655D02*
X017075Y056525D01*
X018475D01*
X0185Y0565D01*
X06305Y041396D02*
X064769D01*
X065Y041627D01*
Y04695D01*
X062948Y041498D02*
X06305Y041396D01*
X0595Y0416D02*
X059602Y041498D01*
X062948D01*
X045957Y05095D02*
X056D01*
X045726Y051181D02*
X045957Y05095D01*
X045726Y051181D02*
Y052881D01*
X055975Y046925D02*
X056Y04695D01*
X0576Y047D02*
X057625Y047025D01*
X056Y05095D02*
X056969D01*
X045726Y05335D02*
Y055581D01*
Y052881D02*
Y05335D01*
X045776Y0534D01*
X04655D01*
X043131Y05265D02*
X045495D01*
X045726Y052881D01*
X0427Y052219D02*
X043131Y05265D01*
X0427Y051642D02*
Y052219D01*
Y049358D02*
Y051642D01*
X041794D02*
Y051917D01*
X04195Y052073D02*
Y0534D01*
X041794Y051917D02*
X04195Y052073D01*
X041975Y053425D02*
X043525D01*
X04195Y0534D02*
X041975Y053425D01*
X043525D02*
X04355Y05345D01*
Y05405D02*
Y0553D01*
X049681Y05785D02*
X050608D01*
X04945Y05645D02*
Y057619D01*
X049681Y05785D01*
X045957Y05535D02*
X04655D01*
X043475Y056425D02*
X0435Y0564D01*
X042Y05671D02*
Y0593D01*
X04185Y05656D02*
X042Y05671D01*
D18*
X043606Y051642D02*
D03*
X0427D02*
D03*
X041794D02*
D03*
D19*
X0427Y049358D02*
D03*
D46*
X0226Y048435D02*
X022815Y04865D01*
X0226Y04015D02*
Y048435D01*
X022815Y04865D02*
X0258D01*
X02055Y036915D02*
Y04815D01*
X0205Y0482D02*
X02055Y04815D01*
X020435Y0368D02*
X02055Y036915D01*
X0258Y05465D02*
X029985D01*
X0301Y03725D02*
Y054535D01*
X029985Y05465D02*
X0301Y054535D01*
X015465Y0368D02*
X020435D01*
X01535Y03545D02*
Y036685D01*
X015465Y0368D01*
X0258Y05365D02*
X029435D01*
X02955Y0356D02*
Y053535D01*
X029435Y05365D02*
X02955Y053535D01*
X03715Y0355D02*
Y0525D01*
X0358Y05265D02*
X037D01*
X03715Y0525D01*
X0358Y05365D02*
X038D01*
X03815Y0355D02*
Y0535D01*
X038Y05365D02*
X03815Y0535D01*
X0358Y05465D02*
X03875D01*
X03915Y05425D01*
Y0355D02*
Y05425D01*
X035225Y047611D02*
X035761D01*
X035109Y035541D02*
Y047496D01*
X035761Y047611D02*
X0358Y04765D01*
X035109Y047496D02*
X035225Y047611D01*
X035109Y035541D02*
X03515Y0355D01*
X03435Y04865D02*
X0358D01*
X03415Y04845D02*
X03435Y04865D01*
X03415Y0355D02*
Y04845D01*
X033265Y04965D02*
X0358D01*
X03315Y049535D02*
X033265Y04965D01*
X03315Y0355D02*
Y049535D01*
X0324Y05065D02*
X0358D01*
X03215Y0504D02*
X0324Y05065D01*
X03215Y0355D02*
Y0504D01*
X0276Y038515D02*
Y051535D01*
X0258Y05165D02*
X027485D01*
X0276Y051535D01*
X027485Y0384D02*
X0276Y038515D01*
X026115Y0384D02*
X027485D01*
X026Y0355D02*
Y038285D01*
X026115Y0384D01*
X025115Y03905D02*
X027035D01*
X025Y038935D02*
X025115Y03905D01*
X027035D02*
X02715Y039165D01*
Y050535D01*
X025Y0355D02*
Y038935D01*
X027035Y05065D02*
X02715Y050535D01*
X0258Y05065D02*
X027035D01*
X0216Y05265D02*
X0258D01*
X02135Y0524D02*
X0216Y05265D01*
X02135Y03545D02*
Y0524D01*
X0595Y0397D02*
X06285D01*
X0578D02*
X0595D01*
Y039585D02*
Y0397D01*
Y0386D02*
Y039585D01*
X06305Y038404D02*
Y0395D01*
X06285Y0397D02*
X06305Y0395D01*
X0578Y0407D02*
Y041743D01*
X057685Y041858D02*
X0578Y041743D01*
X05545Y041858D02*
X057685D01*
D47*
X057Y046975D02*
X057575D01*
X056025D02*
X057D01*
X056969Y05095D02*
X057Y050919D01*
Y046975D02*
Y050919D01*
X057575Y046975D02*
X0576Y047D01*
X056Y04695D02*
X056025Y046975D01*
D48*
X01535Y03545D02*
D03*
X024Y0355D02*
D03*
X02855Y0356D02*
D03*
D49*
X01635Y03545D02*
D03*
X01735D02*
D03*
X01835D02*
D03*
X01935D02*
D03*
X02035D02*
D03*
X02135D02*
D03*
X02235D02*
D03*
X05775Y0481D02*
D03*
Y0471D02*
D03*
X025Y0355D02*
D03*
X026D02*
D03*
X027D02*
D03*
X01705Y05755D02*
D03*
Y05655D02*
D03*
X0445Y0564D02*
D03*
X0435D02*
D03*
X04655Y05535D02*
D03*
Y05635D02*
D03*
X04455Y0553D02*
D03*
X04355D02*
D03*
X02955Y0356D02*
D03*
X03055D02*
D03*
X0185Y0565D02*
D03*
Y0555D02*
D03*
Y0545D02*
D03*
D50*
X0163Y05915D02*
D03*
X01635Y03965D02*
D03*
X05175Y05915D02*
D03*
Y0396D02*
D03*
D51*
X0335Y06025D02*
D03*
X0325D02*
D03*
X0315D02*
D03*
X0305D02*
D03*
X0295D02*
D03*
X0285D02*
D03*
X0275D02*
D03*
X0265D02*
D03*
X0255D02*
D03*
X0245D02*
D03*
X0235D02*
D03*
X0225D02*
D03*
X0215D02*
D03*
X0205D02*
D03*
X0195D02*
D03*
D52*
X0185D02*
D03*
D53*
X04945Y05645D02*
D03*
D54*
Y05545D02*
D03*
D55*
X04755Y0534D02*
D03*
X04455Y05345D02*
D03*
D56*
X04655Y0534D02*
D03*
X04355Y05345D02*
D03*
D57*
X04195Y0534D02*
D03*
X0595Y0416D02*
D03*
D58*
X04195Y0564D02*
D03*
X0595Y0386D02*
D03*
D59*
X044Y0593D02*
D03*
X042D02*
D03*
D60*
X05545Y037842D02*
D03*
Y041858D02*
D03*
X050608Y05785D02*
D03*
X046592D02*
D03*
D61*
X0578Y0407D02*
D03*
Y0397D02*
D03*
Y0387D02*
D03*
D62*
X0358Y04265D02*
D03*
D63*
Y04365D02*
D03*
Y04465D02*
D03*
Y04565D02*
D03*
Y04665D02*
D03*
Y04765D02*
D03*
Y04865D02*
D03*
Y04965D02*
D03*
Y05065D02*
D03*
Y05165D02*
D03*
Y05265D02*
D03*
Y05365D02*
D03*
Y05465D02*
D03*
Y05565D02*
D03*
Y05665D02*
D03*
X0258Y04265D02*
D03*
Y04365D02*
D03*
Y04465D02*
D03*
Y04565D02*
D03*
Y04665D02*
D03*
Y04765D02*
D03*
Y04865D02*
D03*
Y04965D02*
D03*
Y05065D02*
D03*
Y05165D02*
D03*
Y05265D02*
D03*
Y05365D02*
D03*
Y05465D02*
D03*
Y05565D02*
D03*
Y05665D02*
D03*
D64*
X03915Y0355D02*
D03*
X03815D02*
D03*
X03715D02*
D03*
X03615D02*
D03*
X03515D02*
D03*
X03415D02*
D03*
X03315D02*
D03*
D65*
X03215D02*
D03*
D66*
X065Y05395D02*
D03*
Y05295D02*
D03*
Y05195D02*
D03*
Y05095D02*
D03*
Y04995D02*
D03*
Y04895D02*
D03*
Y04695D02*
D03*
X056D02*
D03*
Y04795D02*
D03*
Y04895D02*
D03*
Y05095D02*
D03*
Y05195D02*
D03*
Y05295D02*
D03*
D67*
X065Y04795D02*
D03*
X056Y04995D02*
D03*
Y05395D02*
D03*
D68*
X06305Y038404D02*
D03*
D69*
Y041396D02*
D03*
D70*
X0185Y0575D02*
D03*
D71*
X0226Y04015D02*
D03*
X0205Y0482D02*
D03*
X0301Y03725D02*
D03*
M02*
