G04*
G04 #@! TF.GenerationSoftware,Altium Limited,Altium Designer,21.2.1 (34)*
G04*
G04 Layer_Color=16711935*
%FSTAX24Y24*%
%MOIN*%
G70*
G04*
G04 #@! TF.SameCoordinates,6F426459-06F4-48D7-9159-22F1CB30FF4C*
G04*
G04*
G04 #@! TF.FilePolarity,Negative*
G04*
G01*
G75*
%ADD22R,0.0671X0.0671*%
%ADD23C,0.0671*%
%ADD24C,0.1655*%
%ADD25O,0.0700X0.0980*%
%ADD26R,0.0700X0.0980*%
%ADD27R,0.1080X0.0730*%
%ADD28O,0.1080X0.0730*%
%ADD29O,0.0780X0.1080*%
%ADD30R,0.0780X0.1080*%
%ADD31R,0.0880X0.0880*%
%ADD32C,0.0880*%
%ADD33C,0.1180*%
%ADD34C,0.0631*%
%ADD35O,0.1080X0.0740*%
%ADD36R,0.1064X0.0552*%
%ADD37O,0.1064X0.0552*%
%ADD38C,0.0619*%
%ADD39R,0.0619X0.0619*%
%ADD40O,0.1280X0.0680*%
%ADD41R,0.0680X0.0680*%
%ADD42C,0.1064*%
%ADD43R,0.1064X0.1064*%
%ADD44R,0.0671X0.0671*%
%ADD45C,0.0580*%
D22*
X01535Y03545D02*
D03*
X024Y0355D02*
D03*
X02855Y0356D02*
D03*
D23*
X01635Y03545D02*
D03*
X01735D02*
D03*
X01835D02*
D03*
X01935D02*
D03*
X02035D02*
D03*
X02135D02*
D03*
X02235D02*
D03*
X05775Y0481D02*
D03*
Y0471D02*
D03*
X025Y0355D02*
D03*
X026D02*
D03*
X027D02*
D03*
X01705Y05755D02*
D03*
Y05655D02*
D03*
X0445Y0564D02*
D03*
X0435D02*
D03*
X04655Y05535D02*
D03*
Y05635D02*
D03*
X04455Y0553D02*
D03*
X04355D02*
D03*
X02955Y0356D02*
D03*
X03055D02*
D03*
X0185Y0565D02*
D03*
Y0555D02*
D03*
Y0545D02*
D03*
D24*
X0163Y05915D02*
D03*
X01635Y03965D02*
D03*
X05175Y05915D02*
D03*
Y0396D02*
D03*
D25*
X0335Y06025D02*
D03*
X0325D02*
D03*
X0315D02*
D03*
X0305D02*
D03*
X0295D02*
D03*
X0285D02*
D03*
X0275D02*
D03*
X0265D02*
D03*
X0255D02*
D03*
X0245D02*
D03*
X0235D02*
D03*
X0225D02*
D03*
X0215D02*
D03*
X0205D02*
D03*
X0195D02*
D03*
D26*
X0185D02*
D03*
D27*
X04945Y05645D02*
D03*
D28*
Y05545D02*
D03*
D29*
X04755Y0534D02*
D03*
X04455Y05345D02*
D03*
D30*
X04655Y0534D02*
D03*
X04355Y05345D02*
D03*
D31*
X04195Y0534D02*
D03*
X0595Y0416D02*
D03*
D32*
X04195Y0564D02*
D03*
X0595Y0386D02*
D03*
D33*
X044Y0593D02*
D03*
X042D02*
D03*
D34*
X05545Y037842D02*
D03*
Y041858D02*
D03*
X050608Y05785D02*
D03*
X046592D02*
D03*
D35*
X0578Y0407D02*
D03*
Y0397D02*
D03*
Y0387D02*
D03*
D36*
X0358Y04265D02*
D03*
D37*
Y04365D02*
D03*
Y04465D02*
D03*
Y04565D02*
D03*
Y04665D02*
D03*
Y04765D02*
D03*
Y04865D02*
D03*
Y04965D02*
D03*
Y05065D02*
D03*
Y05165D02*
D03*
Y05265D02*
D03*
Y05365D02*
D03*
Y05465D02*
D03*
Y05565D02*
D03*
Y05665D02*
D03*
X0258Y04265D02*
D03*
Y04365D02*
D03*
Y04465D02*
D03*
Y04565D02*
D03*
Y04665D02*
D03*
Y04765D02*
D03*
Y04865D02*
D03*
Y04965D02*
D03*
Y05065D02*
D03*
Y05165D02*
D03*
Y05265D02*
D03*
Y05365D02*
D03*
Y05465D02*
D03*
Y05565D02*
D03*
Y05665D02*
D03*
D38*
X03915Y0355D02*
D03*
X03815D02*
D03*
X03715D02*
D03*
X03615D02*
D03*
X03515D02*
D03*
X03415D02*
D03*
X03315D02*
D03*
D39*
X03215D02*
D03*
D40*
X065Y05395D02*
D03*
Y05295D02*
D03*
Y05195D02*
D03*
Y05095D02*
D03*
Y04995D02*
D03*
Y04895D02*
D03*
Y04695D02*
D03*
X056D02*
D03*
Y04795D02*
D03*
Y04895D02*
D03*
Y05095D02*
D03*
Y05195D02*
D03*
Y05295D02*
D03*
D41*
X065Y04795D02*
D03*
X056Y04995D02*
D03*
Y05395D02*
D03*
D42*
X06305Y038404D02*
D03*
D43*
Y041396D02*
D03*
D44*
X0185Y0575D02*
D03*
D45*
X0226Y04015D02*
D03*
X0205Y0482D02*
D03*
X0301Y03725D02*
D03*
M02*
